<?xml version="1.0" standalone="no"?>
<!DOCTYPE svg PUBLIC "-//W3C//DTD SVG 20010904//EN"
 "http://www.w3.org/TR/2001/REC-SVG-20010904/DTD/svg10.dtd">
<svg version="1.0" xmlns="http://www.w3.org/2000/svg"
 width="1000.000000pt" height="1000.000000pt" viewBox="0 0 1000.000000 1000.000000"
 preserveAspectRatio="xMidYMid meet">
<metadata>
Created by potrace 1.14, written by Peter Selinger 2001-2017
</metadata>
<g transform="translate(0.000000,1000.000000) scale(0.100000,-0.100000)"
fill="#000000" stroke="none">
<path d="M2496 9245 c-18 -8 -22 -18 -21 -60 0 -27 5 -53 10 -57 6 -5 6 -8 -1
-8 -7 0 -9 -11 -7 -27 5 -31 5 -47 0 -140 -1 -35 1 -63 6 -63 6 0 6 -5 1 -12
-8 -12 -10 -33 -4 -48 6 -15 6 -51 0 -55 -8 -5 -6 -92 3 -101 3 -4 3 -14 -2
-23 -5 -9 -6 -25 -4 -36 6 -26 6 -34 0 -72 -3 -20 0 -33 7 -33 7 0 7 -3 1 -8
-6 -4 -9 -36 -8 -72 3 -86 3 -126 0 -180 -1 -25 2 -48 8 -52 7 -5 7 -8 0 -8
-9 0 -12 -62 -5 -80 1 -3 2 -18 1 -35 -1 -16 -3 -56 -4 -87 -2 -32 1 -58 6
-58 6 0 6 -5 1 -12 -8 -12 -10 -33 -4 -48 6 -15 6 -51 0 -55 -9 -5 -6 -98 4
-113 3 -6 2 -13 -2 -16 -5 -3 -8 -17 -6 -31 2 -14 6 -36 8 -50 2 -14 0 -27 -4
-30 -3 -2 -5 -28 -3 -57 2 -29 3 -57 4 -63 0 -5 -2 -22 -4 -38 -2 -15 -1 -29
3 -32 6 -4 6 -40 0 -55 -7 -16 -4 -77 3 -87 6 -8 6 -13 0 -13 -11 0 -11 -50 0
-67 5 -7 5 -13 0 -13 -4 0 -8 -18 -8 -40 0 -22 5 -40 10 -40 6 0 5 -4 -2 -8
-7 -4 -9 -13 -4 -20 6 -10 40 -4 157 28 82 22 158 42 169 44 11 2 28 7 38 11
21 9 19 39 21 -312 l1 -292 -75 -21 c-41 -12 -82 -23 -90 -25 -115 -27 -342
-90 -365 -100 -25 -12 -215 -66 -360 -104 l-40 -10 1 -615 c0 -339 2 -618 5
-620 2 -3 121 27 262 65 142 38 262 67 266 64 5 -2 7 -19 6 -37 -1 -18 2 -41
7 -50 4 -9 4 -19 -1 -23 -6 -3 -7 -15 -5 -28 6 -22 6 -36 1 -142 -2 -33 1 -65
6 -72 4 -6 4 -13 0 -16 -10 -6 -9 -139 1 -155 4 -7 4 -12 -1 -12 -10 0 -10
-121 0 -137 4 -6 4 -14 0 -16 -5 -3 -7 -40 -5 -84 3 -96 3 -87 -1 -153 -2 -30
1 -63 5 -72 5 -10 5 -18 1 -18 -10 0 -10 -101 0 -117 5 -7 4 -13 0 -13 -5 0
-8 -18 -8 -40 0 -22 4 -40 9 -40 5 0 4 -5 -1 -12 -11 -15 -11 -58 0 -75 4 -6
4 -14 0 -16 -10 -6 -9 -139 1 -155 4 -7 4 -12 -1 -12 -10 0 -10 -121 0 -137 4
-6 4 -14 0 -16 -7 -5 -9 -136 -3 -162 1 -5 1 -12 0 -15 -6 -16 -5 -118 2 -133
5 -9 5 -17 1 -17 -10 0 -10 -101 0 -117 5 -7 4 -13 0 -13 -5 0 -8 -18 -8 -40
0 -22 3 -40 8 -40 4 0 5 -6 0 -12 -10 -17 -11 -59 0 -80 4 -10 4 -18 0 -18
-10 0 -10 -101 0 -118 5 -6 4 -12 0 -12 -5 0 -8 -18 -8 -40 0 -22 4 -40 9 -40
5 0 4 -5 -1 -12 -11 -15 -11 -58 0 -75 4 -6 4 -14 0 -16 -10 -6 -9 -139 1
-155 4 -7 3 -12 -2 -12 -5 0 -7 -15 -5 -32 3 -18 4 -37 4 -43 -6 -66 -5 -135
2 -135 4 0 5 -6 1 -12 -11 -18 -12 -48 -2 -54 4 -3 3 -14 -2 -25 -8 -14 -7
-19 2 -19 9 0 9 -3 2 -8 -13 -9 -13 -85 1 -94 7 -5 6 -8 -1 -8 -6 0 -9 -15 -7
-37 2 -21 4 -42 4 -48 0 -5 -1 -25 -4 -43 -3 -19 0 -32 7 -32 7 0 7 -3 1 -8
-6 -4 -9 -36 -8 -72 3 -86 3 -126 0 -180 -1 -25 2 -48 8 -52 7 -5 7 -8 0 -8
-9 0 -12 -62 -5 -80 1 -3 2 -18 1 -35 -1 -16 -3 -56 -4 -87 -2 -32 1 -58 6
-58 4 0 5 -6 1 -12 -11 -18 -12 -48 -2 -54 5 -3 4 -12 -3 -20 -9 -11 -9 -14 1
-14 8 0 9 -4 3 -13 -11 -13 -10 -97 0 -114 4 -7 3 -14 -1 -17 -5 -3 -8 -17 -6
-31 2 -14 6 -36 8 -50 2 -14 0 -27 -4 -30 -3 -2 -6 -21 -5 -42 l1 -38 507 -3
507 -2 0 1362 0 1362 20 -22 c11 -12 20 -26 20 -32 0 -5 5 -10 11 -10 7 0 27
-16 45 -36 19 -19 34 -32 34 -28 0 4 8 -2 18 -12 23 -25 142 -107 142 -98 0 4
8 0 18 -8 19 -16 112 -61 152 -73 14 -4 30 -11 35 -16 6 -4 22 -10 35 -13 14
-2 53 -14 88 -25 35 -11 66 -20 70 -19 4 1 18 -2 32 -5 14 -4 36 -9 50 -11 14
-3 25 -5 25 -6 0 -1 11 -3 25 -5 14 -2 52 -7 85 -11 115 -14 555 -8 555 8 0 4
9 5 20 3 11 -2 20 1 20 6 0 6 5 7 10 4 14 -9 196 34 270 62 8 4 18 5 23 5 4
-1 7 2 7 6 0 5 6 9 13 9 20 2 81 27 89 38 4 6 8 7 8 3 0 -8 89 39 168 88 28
19 52 30 52 26 0 -4 4 -2 8 4 10 17 101 84 112 84 6 0 10 7 10 16 0 8 4 13 8
10 12 -7 292 271 292 289 0 5 33 45 57 70 7 7 9 15 6 19 -4 3 -1 6 5 6 5 0 21
17 33 38 13 20 29 43 36 50 7 7 13 17 13 22 0 5 6 15 13 22 24 24 66 105 59
113 -4 3 -2 5 3 3 6 -2 12 2 14 7 9 25 43 65 52 59 5 -3 7 -10 3 -15 -3 -5 0
-17 8 -26 9 -12 9 -15 1 -9 -13 7 -18 -6 -7 -17 4 -4 8 -26 10 -49 4 -62 12
-129 19 -158 3 -14 8 -34 10 -45 12 -65 40 -161 49 -167 6 -4 8 -8 3 -8 -4 0
-1 -13 8 -30 9 -16 13 -30 10 -30 -4 0 1 -7 9 -16 9 -8 14 -20 11 -25 -4 -5
-1 -9 5 -9 6 0 8 -5 5 -10 -3 -5 -1 -10 4 -10 6 0 11 -6 11 -12 0 -7 18 -37
40 -66 22 -29 40 -55 40 -58 0 -10 122 -119 131 -116 5 1 9 -5 9 -14 0 -8 5
-12 10 -9 6 3 10 2 10 -3 0 -4 16 -16 35 -25 19 -9 35 -21 35 -27 0 -5 7 -7
15 -4 8 4 15 1 15 -6 0 -6 5 -8 10 -5 6 3 10 2 10 -4 0 -6 15 -14 33 -20 17
-5 52 -17 77 -27 61 -23 127 -37 240 -53 86 -12 475 -5 475 9 0 1 11 3 25 5
14 1 37 6 53 9 15 3 37 8 50 11 12 2 38 9 57 14 19 5 62 17 95 26 33 9 66 20
74 25 22 12 23 700 1 717 -10 7 -19 8 -27 2 -6 -6 -25 -11 -42 -11 -17 -1 -31
-4 -31 -7 0 -6 -36 -10 -127 -14 -18 -1 -33 -4 -33 -7 0 -3 -12 -5 -27 -4 -16
1 -28 3 -28 4 0 1 -13 3 -30 6 -49 6 -90 12 -92 15 -2 1 -8 2 -13 3 -6 0 -15
8 -20 16 -5 8 -10 11 -10 6 0 -5 -7 -3 -15 4 -8 7 -15 10 -15 6 0 -17 -88 85
-112 129 -29 56 -64 152 -63 175 0 8 -2 17 -6 20 -10 8 -32 197 -33 288 0 23
-5 42 -11 42 -5 0 -3 5 5 10 9 6 10 10 3 10 -8 0 -9 9 -4 28 8 25 5 71 -4 80
-2 2 0 15 5 28 5 13 6 24 1 24 -5 0 -5 16 -1 35 4 19 4 35 -1 35 -5 0 -5 10
-1 23 8 23 7 85 -2 94 -2 3 -1 16 4 29 5 13 6 24 1 24 -5 0 -5 16 -1 35 5 21
4 35 -2 35 -5 0 -7 4 -3 10 9 15 12 121 3 126 -5 3 -5 11 0 17 5 7 6 21 2 32
-4 11 -4 30 1 42 5 12 4 25 -1 28 -5 3 -5 18 0 35 5 18 5 32 -1 36 -5 3 -7 10
-3 15 8 14 11 110 3 115 -4 2 -3 20 1 39 4 20 4 38 -1 41 -5 3 -7 10 -3 15 7
12 9 133 2 145 -3 5 -2 17 1 28 4 10 4 40 1 67 -4 28 -2 46 3 42 5 -3 6 4 1
18 -4 13 -7 29 -6 34 3 27 3 134 0 162 -2 17 0 29 5 26 5 -3 6 4 1 18 -4 13
-7 29 -6 34 6 77 7 127 1 137 -4 6 -3 22 2 35 5 15 5 31 0 40 -5 9 -5 29 -1
45 5 15 5 30 0 33 -4 2 -43 -5 -86 -16 -44 -12 -128 -35 -189 -51 -228 -62
-257 -69 -260 -66 -4 4 -8 89 -5 103 1 6 2 13 1 17 0 4 -1 31 -1 60 0 87 0
102 -4 123 -2 11 1 28 5 37 6 10 5 19 -1 23 -8 5 -8 11 -1 19 6 7 8 15 5 18
-5 6 -8 257 -2 263 1 2 1 74 -2 160 -3 86 -3 158 -1 160 2 2 3 60 2 129 l-2
125 43 11 c169 45 332 91 346 99 10 5 54 19 97 31 44 12 96 26 115 31 19 5 46
12 60 15 30 6 192 51 236 65 l31 10 0 305 c0 268 -2 304 -16 299 -20 -8 -355
-95 -365 -95 -4 0 -4 5 -1 10 3 6 2 10 -3 10 -5 0 -6 21 -2 48 5 26 4 55 -2
65 -5 9 -6 22 -3 27 9 14 12 121 4 126 -4 2 -4 18 1 35 5 18 6 39 1 48 -5 9
-7 25 -5 36 7 34 10 115 5 120 -8 8 -6 63 2 58 4 -2 5 8 1 23 -4 16 -7 33 -6
39 2 17 4 110 2 120 -1 6 -1 15 0 20 2 10 2 84 1 118 -1 14 -8 18 -28 17 -16
-1 -32 -2 -38 -1 -28 4 -939 0 -943 -4 -2 -2 -5 -270 -6 -594 -1 -520 1 -591
14 -591 8 0 95 22 192 48 151 42 177 46 180 33 3 -14 2 -575 -1 -592 -1 -5
-31 -14 -66 -19 -3 -1 -26 -7 -52 -15 -67 -20 -149 -42 -280 -75 -62 -16 -122
-35 -135 -42 -13 -7 -25 -13 -28 -13 -3 -1 -23 -6 -45 -13 -22 -6 -51 -13 -65
-16 -49 -10 -243 -65 -248 -71 -3 -3 -5 -104 -5 -225 0 -148 -3 -218 -10 -213
-6 4 -7 1 -1 -8 5 -8 9 -187 10 -399 l1 -385 24 1 c13 1 94 21 179 43 85 23
189 51 230 62 41 10 83 22 92 25 16 5 17 -20 14 -348 -2 -194 -4 -353 -6 -353
-1 0 -3 -29 -5 -65 -3 -36 -6 -78 -9 -95 -3 -16 -7 -51 -10 -76 -3 -25 -10
-67 -16 -93 -6 -27 -8 -51 -5 -54 2 -3 0 -11 -6 -18 -6 -8 -9 -21 -5 -29 3 -8
1 -15 -5 -15 -6 0 -9 -6 -6 -12 2 -7 1 -20 -4 -29 -4 -9 -11 -29 -14 -45 -10
-47 -10 -48 -17 -60 -4 -6 -9 -21 -12 -35 -2 -13 -10 -37 -17 -54 -7 -16 -12
-33 -11 -37 1 -5 -3 -8 -9 -8 -5 0 -7 -5 -4 -10 4 -6 3 -16 -2 -23 -6 -7 -16
-28 -23 -47 -8 -19 -21 -46 -29 -59 -8 -13 -16 -30 -17 -38 -2 -8 -9 -22 -17
-31 -7 -10 -26 -39 -41 -66 -16 -26 -35 -56 -42 -65 -8 -9 -13 -19 -12 -23 2
-4 -7 -15 -19 -23 -13 -9 -23 -23 -23 -31 0 -8 -4 -12 -10 -9 -5 3 -10 1 -10
-5 0 -6 -11 -21 -25 -34 -14 -13 -25 -28 -25 -33 0 -5 -11 -16 -25 -23 -13 -7
-22 -17 -19 -22 3 -4 2 -8 -3 -8 -4 0 -25 -16 -46 -35 -21 -19 -43 -35 -48
-35 -6 0 -7 -4 -4 -10 3 -5 1 -10 -5 -10 -13 0 -93 -59 -98 -72 -2 -5 -7 -6
-12 -3 -5 3 -14 0 -22 -7 -23 -22 -75 -48 -82 -41 -3 3 -6 1 -6 -5 0 -7 -7
-12 -15 -12 -8 0 -15 -5 -15 -12 0 -6 -3 -8 -7 -5 -3 4 -12 2 -19 -3 -6 -6
-22 -13 -35 -15 -12 -3 -25 -8 -28 -12 -6 -8 -14 -10 -51 -18 -8 -2 -16 -4
-17 -5 -2 -2 -7 -4 -13 -5 -5 -1 -11 -3 -12 -5 -2 -1 -10 -3 -18 -5 -8 -2 -26
-7 -40 -10 -14 -3 -32 -8 -40 -10 -8 -2 -15 -4 -15 -5 0 -1 -11 -3 -25 -5 -14
-2 -38 -6 -55 -10 -16 -3 -51 -8 -76 -9 -25 -2 -51 -6 -58 -10 -6 -4 -11 -2
-11 5 0 8 -4 9 -13 0 -14 -11 -327 -13 -327 -2 0 3 -30 7 -67 8 -41 2 -70 7
-75 15 -6 11 -8 11 -8 0 0 -9 -5 -10 -19 -2 -11 5 -29 10 -41 10 -11 0 -35 7
-52 16 -22 12 -28 12 -22 2 6 -10 4 -10 -9 1 -9 7 -17 11 -17 7 0 -3 -26 6
-57 20 -32 14 -59 25 -60 25 -2 0 -18 6 -38 15 -19 8 -37 14 -40 14 -3 0 -15
9 -27 20 -12 11 -28 20 -35 20 -7 0 -13 4 -13 8 0 4 -13 15 -29 25 -35 21
-158 140 -186 181 -11 16 -24 34 -30 40 -11 12 -42 67 -77 136 -13 25 -27 48
-32 51 -5 4 -6 14 -3 22 3 9 -1 18 -9 21 -9 3 -13 10 -9 15 3 5 1 12 -5 16 -5
3 -10 12 -10 20 0 8 -5 26 -11 42 -6 15 -9 28 -8 28 1 0 -3 10 -9 22 -7 12
-15 39 -18 60 -3 21 -10 40 -15 41 -5 2 -7 7 -5 11 3 4 1 26 -5 49 -11 53 -20
107 -24 152 -2 19 -4 35 -5 35 -3 0 -8 56 -12 122 -2 35 -6 63 -9 63 -4 0 -3
16 1 34 4 19 5 38 2 41 -11 11 -10 35 1 35 8 0 8 3 2 8 -15 11 -17 32 -4 48 8
10 8 14 0 14 -7 0 -9 13 -5 35 4 25 1 37 -9 41 -8 3 -75 -11 -148 -31 -73 -20
-140 -39 -148 -41 -9 -2 -52 -13 -96 -25 -44 -11 -87 -22 -95 -24 -8 -2 -22
-5 -29 -7 -12 -2 -15 13 -17 77 -1 50 3 83 10 87 7 5 7 8 1 8 -12 0 -14 189
-2 207 4 6 4 14 -1 17 -10 6 -10 186 0 202 4 6 4 14 0 18 -12 12 -10 196 2
196 7 0 8 3 1 8 -14 10 -16 184 -2 175 6 -4 7 -1 1 8 -12 20 -12 63 0 71 7 5
7 8 1 8 -6 0 -10 31 -10 77 l0 76 65 19 c36 10 74 20 85 23 11 2 47 12 80 20
33 9 78 21 100 26 21 6 44 14 50 18 8 7 230 72 291 86 10 2 62 16 114 30 52
15 104 28 114 31 27 5 36 23 26 50 -5 13 -6 26 -1 28 8 6 6 78 -3 102 -3 8 -2
16 3 18 8 6 6 90 -3 105 -4 5 -2 12 2 15 9 5 7 78 -2 102 -3 8 -2 16 3 18 9 6
8 37 -3 54 -4 6 -4 12 1 12 4 0 8 24 8 54 1 54 0 54 -28 50 -16 -2 -37 -6 -47
-9 -10 -3 -27 -8 -37 -10 -10 -2 -75 -20 -145 -39 -71 -19 -129 -31 -129 -28
-7 39 -3 270 5 281 8 11 8 13 0 8 -13 -7 -13 91 0 112 5 8 5 12 0 9 -5 -4 -9
36 -9 92 0 58 3 96 9 93 5 -4 6 0 0 8 -12 20 -12 101 0 118 7 9 7 12 1 9 -13
-8 -13 531 -1 551 6 9 5 12 -1 8 -12 -8 -11 92 1 112 6 9 5 12 -1 8 -12 -8
-11 92 1 112 6 9 5 12 -1 8 -12 -8 -11 92 1 112 6 8 5 12 0 8 -5 -3 -9 54 -9
139 1 80 -2 148 -5 152 -8 11 -969 9 -994 -3z"/>
</g>
</svg>
