<?xml version="1.0" standalone="no"?>
<!DOCTYPE svg PUBLIC "-//W3C//DTD SVG 20010904//EN"
 "http://www.w3.org/TR/2001/REC-SVG-20010904/DTD/svg10.dtd">
<svg version="1.0" xmlns="http://www.w3.org/2000/svg"
 width="700.000000pt" height="700.000000pt" viewBox="0 0 700.000000 700.000000"
 preserveAspectRatio="xMidYMid meet">
<metadata>
Created by potrace 1.14, written by Peter Selinger 2001-2017
</metadata>
<g transform="translate(0.000000,700.000000) scale(0.100000,-0.100000)"
fill="#000000" stroke="none">
<path d="M4256 6754 c-4 -9 -2 -22 3 -28 6 -7 -24 -246 -81 -656 -50 -355 -93
-647 -94 -649 -2 -2 -10 1 -17 7 -19 16 -35 1206 -16 1228 16 19 4 44 -21 44
-25 0 -37 -25 -21 -44 8 -9 14 -195 20 -607 5 -327 8 -596 5 -598 -2 -2 -6 2
-8 10 -14 40 -204 1049 -202 1074 1 24 -3 30 -19 30 -24 0 -32 -30 -14 -52 10
-11 210 -985 209 -1013 -1 -3 -81 182 -179 410 -98 229 -178 427 -177 440 1
18 -5 26 -20 28 -30 4 -38 -24 -14 -46 11 -9 88 -176 172 -372 196 -460 183
-428 165 -410 -48 49 -416 550 -419 571 -5 36 -51 34 -58 -2 -5 -27 -463 -643
-468 -630 -5 14 337 833 353 845 23 16 16 51 -10 51 -16 0 -21 -9 -26 -40 -4
-34 -330 -847 -336 -841 -1 1 38 226 87 501 65 359 94 503 107 517 15 17 15
20 1 35 -26 26 -50 9 -43 -29 6 -31 -163 -1016 -185 -1078 -5 -15 -9 225 -9
582 -1 395 2 609 9 613 16 10 12 42 -7 49 -24 10 -50 -19 -35 -37 16 -19 12
-1249 -3 -1254 -15 -5 -216 1298 -203 1314 15 18 2 43 -22 43 -27 0 -36 -26
-18 -48 10 -11 48 -230 117 -672 94 -609 100 -656 84 -667 -9 -7 -20 -13 -25
-13 -9 0 -5 -12 -228 749 -95 321 -169 592 -167 603 8 29 -2 48 -24 48 -27 0
-35 -27 -15 -49 15 -16 406 -1323 406 -1355 0 -11 -60 -40 -67 -32 -13 13
-553 1311 -551 1325 3 21 -10 41 -28 41 -25 0 -27 -28 -3 -57 12 -16 144 -318
294 -673 l272 -645 -30 -13 c-16 -7 -34 -11 -39 -10 -19 7 -687 1202 -688
1231 0 34 -25 46 -48 23 -16 -16 -15 -19 10 -39 25 -20 684 -1176 696 -1219 3
-14 -1 -18 -24 -17 -26 0 -65 49 -424 527 -217 289 -394 535 -395 547 0 15 -7
20 -25 20 -34 0 -38 -30 -6 -47 15 -7 200 -245 417 -533 291 -387 387 -521
374 -523 -19 -4 -19 -3 -537 502 -192 186 -348 344 -348 351 0 7 -7 18 -16 25
-12 11 -18 11 -30 -2 -19 -18 -9 -46 19 -50 21 -3 869 -821 856 -826 -13 -6
-892 593 -897 611 -7 25 -47 19 -47 -8 0 -13 8 -21 26 -25 23 -4 862 -561 855
-567 -6 -7 -823 330 -833 343 -16 21 -48 14 -48 -11 0 -15 8 -21 30 -23 27 -3
818 -312 812 -318 -6 -6 -704 97 -719 106 -10 5 -25 10 -33 10 -17 0 -20 -31
-5 -46 9 -9 122 -785 116 -792 -7 -6 -350 825 -351 848 0 32 -12 50 -31 50
-25 0 -28 -30 -6 -53 20 -21 377 -856 358 -837 -32 33 -584 844 -580 854 7 17
-20 38 -40 30 -23 -9 -20 -45 4 -51 12 -3 138 -175 323 -442 167 -240 307
-443 312 -451 22 -36 -136 115 -482 462 -204 205 -373 382 -375 393 -2 12 -11
20 -23 20 -29 0 -28 -49 0 -53 31 -4 887 -864 877 -880 -6 -9 -163 100 -540
375 -292 214 -532 393 -532 399 0 23 -25 35 -44 21 -23 -17 -11 -44 22 -49 15
-2 258 -173 552 -388 289 -211 529 -386 534 -391 4 -4 4 -19 0 -33 l-9 -26
-614 335 c-338 184 -620 344 -628 355 -17 24 -41 26 -49 5 -8 -20 15 -47 33
-41 8 3 281 -140 606 -318 326 -177 604 -329 619 -337 l27 -14 -17 -37 -17
-36 -658 268 c-363 148 -664 276 -671 285 -16 23 -51 15 -51 -10 0 -16 9 -21
40 -26 29 -4 1318 -520 1332 -533 8 -7 -24 -66 -34 -66 -37 0 -1349 375 -1359
388 -15 20 -44 8 -44 -18 0 -11 3 -20 8 -21 4 0 27 -2 52 -4 40 -2 1325 -356
1337 -368 2 -3 -2 -15 -9 -27 -9 -15 -20 -20 -38 -17 -14 3 -308 44 -655 93
-428 59 -635 92 -647 102 -22 18 -48 9 -48 -17 0 -22 27 -36 44 -22 7 6 244
-23 656 -81 355 -50 647 -93 649 -94 2 -2 -1 -10 -7 -17 -16 -19 -1206 -35
-1228 -16 -19 16 -44 4 -44 -21 0 -25 25 -37 44 -21 9 8 195 14 607 20 327 5
596 7 598 5 2 -2 -2 -6 -10 -8 -38 -14 -1048 -204 -1074 -202 -21 1 -30 -4
-33 -17 -5 -25 24 -32 61 -13 32 16 951 200 970 193 16 -5 -777 -341 -808
-341 -23 -1 -31 -6 -33 -22 -4 -29 24 -38 46 -14 18 20 792 357 792 345 0 -12
-560 -424 -581 -427 -36 -5 -34 -51 2 -58 27 -5 644 -463 631 -468 -14 -5
-835 338 -846 354 -16 22 -51 14 -51 -11 0 -16 9 -21 40 -26 33 -4 847 -330
841 -336 -1 -1 -226 38 -501 88 -356 63 -504 94 -517 106 -17 15 -20 15 -35 1
-26 -26 -9 -50 30 -43 30 6 1015 -163 1077 -185 15 -5 -222 -9 -582 -9 -395
-1 -609 2 -613 9 -10 16 -42 12 -49 -7 -10 -24 19 -50 37 -35 19 16 1249 12
1254 -3 5 -15 -1298 -216 -1314 -203 -18 15 -43 2 -43 -22 0 -27 26 -36 48
-18 11 10 227 47 647 112 347 54 642 100 657 103 20 4 29 0 38 -17 6 -12 9
-24 6 -27 -14 -14 -1346 -399 -1354 -391 -14 14 -42 -2 -42 -23 0 -27 27 -35
49 -15 14 13 1323 406 1352 406 10 0 42 -60 36 -66 -14 -14 -1312 -555 -1325
-552 -22 3 -42 -10 -42 -28 0 -24 30 -28 53 -6 12 11 315 144 674 294 l651
275 14 -36 15 -37 -608 -342 c-368 -207 -618 -342 -633 -342 -33 0 -44 -26
-22 -48 16 -16 19 -15 39 10 20 24 1178 685 1219 696 14 3 18 -2 17 -24 0 -26
-49 -66 -526 -424 -292 -219 -536 -394 -547 -395 -16 0 -21 -6 -21 -25 0 -34
30 -38 47 -6 7 14 247 202 533 417 393 296 521 387 523 374 3 -11 -22 -44 -65
-89 -501 -516 -778 -796 -788 -796 -7 0 -18 -7 -25 -16 -11 -12 -11 -18 2 -30
18 -19 46 -9 50 19 3 21 821 868 826 856 6 -14 -593 -892 -611 -897 -25 -7
-19 -47 8 -47 13 0 21 8 25 26 4 23 561 862 567 855 8 -7 -323 -814 -339 -828
-24 -21 -20 -53 7 -53 15 0 21 8 23 30 3 28 312 818 318 812 7 -7 -98 -712
-107 -715 -5 -2 -9 -15 -9 -28 0 -25 26 -34 46 -15 5 6 95 22 199 36 105 15
280 40 390 55 110 16 201 27 202 26 7 -7 -824 -350 -847 -351 -32 0 -50 -12
-50 -31 0 -24 30 -28 53 -6 17 16 323 149 807 349 19 8 31 11 25 5 -43 -40
-838 -580 -848 -576 -18 7 -39 -19 -31 -40 9 -22 45 -20 51 3 5 18 863 625
902 638 9 3 -177 -188 -414 -425 -238 -239 -438 -432 -450 -434 -12 -2 -20
-10 -20 -23 0 -29 49 -28 53 0 4 31 864 887 880 876 9 -5 -96 -157 -375 -539
-213 -292 -393 -532 -399 -532 -23 0 -35 -25 -21 -44 17 -23 44 -11 49 22 3
15 176 261 393 557 343 469 391 530 413 528 13 -1 26 -4 28 -6 8 -8 -667
-1231 -686 -1244 -24 -17 -26 -41 -5 -49 20 -8 47 15 41 33 -3 8 140 281 318
606 178 326 329 604 337 619 l14 27 37 -17 37 -17 -269 -658 c-147 -362 -275
-664 -285 -671 -23 -16 -16 -51 10 -51 16 0 21 9 26 40 4 30 520 1319 533
1333 8 8 66 -23 66 -35 0 -39 -373 -1348 -388 -1359 -20 -14 -9 -44 17 -44 22
0 32 19 25 47 -4 15 205 785 352 1300 17 57 20 59 47 39 17 -13 13 -47 -74
-667 -63 -449 -97 -659 -107 -671 -18 -21 -9 -48 17 -48 22 0 36 27 22 44 -6
7 24 246 81 656 50 355 93 647 94 649 2 2 10 -1 17 -7 19 -16 35 -1206 16
-1228 -16 -19 -4 -44 21 -44 25 0 37 25 21 44 -8 10 -14 191 -20 607 -5 327
-8 596 -5 598 2 2 6 -2 8 -10 14 -40 204 -1049 202 -1074 -1 -24 3 -30 19 -30
24 0 32 30 14 52 -10 11 -210 985 -209 1013 1 3 81 -182 179 -410 98 -229 178
-427 177 -440 -1 -18 5 -26 20 -28 30 -4 38 24 14 46 -11 9 -88 176 -172 372
-196 460 -183 428 -165 410 48 -49 416 -550 419 -571 5 -36 51 -34 58 3 5 26
463 642 468 629 5 -14 -337 -833 -353 -845 -23 -16 -16 -51 10 -51 16 0 21 9
26 40 4 33 330 847 336 841 1 -1 -38 -226 -87 -501 -64 -356 -95 -504 -107
-517 -15 -17 -15 -20 -1 -35 26 -26 50 -9 43 29 -6 31 163 1016 185 1078 5 15
9 -225 9 -582 1 -395 -2 -609 -9 -613 -16 -10 -12 -42 7 -49 24 -10 50 19 35
37 -16 19 -12 1249 3 1254 15 5 216 -1298 203 -1314 -15 -18 -2 -43 22 -43 27
0 36 26 18 48 -10 11 -48 230 -117 672 -94 609 -100 656 -84 668 9 6 20 12 25
12 9 0 5 12 228 -749 95 -321 169 -592 167 -603 -8 -29 2 -48 24 -48 27 0 35
27 15 49 -14 15 -406 1322 -406 1352 0 10 60 43 66 36 14 -14 554 -1312 552
-1326 -3 -21 10 -41 28 -41 25 0 28 30 6 53 -11 12 -143 312 -292 666 -149
354 -273 647 -275 651 -2 4 12 14 33 22 l37 15 343 -608 c207 -367 342 -618
342 -634 0 -32 26 -43 48 -21 16 16 15 19 -10 39 -25 20 -684 1176 -696 1219
-3 14 1 18 24 17 26 0 65 -49 424 -526 217 -290 394 -536 395 -547 0 -16 7
-21 25 -21 34 0 38 30 6 47 -14 7 -202 247 -417 533 -296 394 -387 521 -374
523 11 3 46 -24 94 -70 593 -576 791 -773 791 -783 0 -7 7 -18 16 -25 12 -11
18 -11 30 2 19 19 9 46 -19 50 -21 3 -868 820 -856 826 14 6 892 -593 897
-611 7 -25 47 -19 47 8 0 13 -8 21 -26 25 -23 4 -862 561 -855 567 7 8 814
-323 828 -339 21 -24 53 -20 53 7 0 15 -8 21 -30 23 -28 3 -818 312 -812 318
6 7 713 -98 721 -106 6 -6 18 -10 28 -10 20 0 25 29 8 46 -9 9 -122 785 -116
792 7 6 350 -825 351 -848 0 -32 12 -50 31 -50 25 0 28 30 6 53 -11 12 -93
195 -182 407 -185 440 -184 438 -172 425 43 -48 580 -838 576 -848 -7 -18 19
-39 40 -31 22 9 20 45 -3 51 -18 5 -625 863 -638 902 -3 9 188 -177 425 -414
239 -238 432 -438 434 -450 2 -12 10 -20 23 -20 29 0 28 49 0 53 -31 4 -887
864 -876 880 5 9 154 -94 539 -375 292 -213 532 -393 532 -399 0 -23 25 -35
44 -21 22 16 11 47 -18 47 -12 0 -250 168 -556 391 -474 347 -535 394 -533
417 1 13 4 26 6 28 8 8 1230 -666 1244 -686 17 -24 41 -26 49 -5 8 19 -15 48
-32 41 -22 -8 -1244 663 -1244 682 1 10 6 27 13 39 12 21 23 17 670 -247 362
-147 664 -275 671 -285 16 -23 51 -16 51 10 0 16 -9 21 -40 26 -29 4 -1316
519 -1332 533 -8 7 24 66 36 66 38 0 1347 -374 1357 -388 14 -20 44 -9 44 17
0 22 -19 32 -47 25 -17 -5 -1339 358 -1351 371 -3 3 3 14 14 25 19 19 25 19
669 -72 446 -62 655 -96 667 -106 21 -18 48 -9 48 17 0 22 -27 36 -44 22 -9
-8 -1291 165 -1305 175 -2 2 1 10 7 17 16 19 1206 34 1228 16 19 -16 44 -4 44
21 0 25 -25 37 -44 21 -9 -8 -195 -14 -607 -20 -327 -5 -596 -7 -598 -5 -2 2
2 6 10 8 42 14 1049 204 1074 202 24 -1 30 3 30 19 0 24 -31 32 -53 13 -9 -8
-46 -20 -82 -27 -36 -6 -256 -49 -490 -95 -234 -46 -426 -83 -427 -82 -7 7
815 351 837 351 18 0 26 6 28 21 4 30 -24 38 -46 13 -18 -18 -781 -353 -789
-345 -8 7 555 424 578 428 36 5 34 51 -3 58 -26 5 -641 463 -629 468 14 5 833
-337 845 -353 16 -23 51 -16 51 10 0 15 -8 21 -32 23 -18 2 -218 80 -445 173
-227 93 -399 167 -383 164 867 -154 980 -176 997 -192 17 -15 20 -15 35 -1 26
26 9 50 -29 43 -31 -6 -1083 176 -1096 190 -3 3 267 5 601 5 393 0 608 -4 612
-10 10 -16 42 -12 49 7 10 24 -19 50 -37 35 -19 -16 -1249 -12 -1254 3 -4 15
1298 215 1314 203 18 -15 43 -2 43 22 0 27 -26 36 -48 18 -11 -11 -228 -48
-672 -117 -610 -95 -656 -100 -667 -84 -19 25 -16 30 20 42 241 77 1306 381
1320 377 28 -7 47 3 47 25 0 27 -27 35 -50 14 -15 -13 -1320 -405 -1350 -405
-10 0 -44 59 -37 66 13 13 1313 554 1326 552 21 -3 41 10 41 28 0 25 -28 27
-57 3 -16 -12 -318 -144 -673 -294 l-645 -272 -13 30 c-7 16 -11 34 -10 39 6
18 1207 688 1233 688 32 0 43 26 21 48 -15 15 -18 14 -44 -13 -27 -30 -1196
-695 -1221 -695 -8 0 -11 11 -9 28 3 23 80 85 528 422 291 219 534 395 545
395 15 0 20 7 20 25 0 32 -34 41 -42 11 -3 -13 -209 -174 -532 -417 -398 -300
-527 -392 -529 -379 -3 11 25 48 75 99 44 44 234 240 422 434 189 193 349 352
356 352 7 0 18 7 25 16 11 12 11 18 -2 30 -19 19 -46 9 -50 -19 -3 -22 -820
-869 -826 -856 -6 13 593 892 611 897 25 7 19 47 -8 47 -13 0 -21 -8 -25 -26
-4 -23 -561 -862 -567 -855 -8 7 323 814 339 828 24 21 20 53 -7 53 -15 0 -21
-8 -23 -30 -3 -28 -312 -818 -318 -812 -6 6 96 704 106 719 5 10 10 25 10 33
0 17 -31 20 -46 5 -9 -9 -785 -122 -791 -116 -8 7 847 357 857 351 13 -8 40
12 40 32 0 24 -30 27 -53 5 -21 -20 -856 -377 -837 -358 33 32 844 584 854
580 17 -7 38 20 30 40 -9 23 -45 20 -51 -4 -3 -12 -175 -138 -442 -323 -240
-167 -443 -307 -451 -312 -36 -22 115 136 462 482 205 204 382 373 393 375 12
2 20 11 20 23 0 29 -49 28 -53 0 -4 -31 -864 -887 -880 -876 -9 5 96 157 375
539 213 292 393 532 399 532 23 0 35 25 21 44 -17 23 -44 11 -49 -22 -3 -15
-176 -262 -392 -557 -345 -471 -391 -530 -413 -528 -14 1 -27 4 -29 6 -8 8
667 1230 686 1244 24 17 26 41 5 49 -20 8 -47 -15 -41 -33 3 -8 -146 -292
-332 -633 l-338 -618 -37 16 -36 17 269 658 c147 362 275 664 285 671 23 16
16 51 -10 51 -16 0 -21 -9 -26 -40 -4 -30 -520 -1318 -533 -1332 -7 -8 -66 24
-66 35 0 39 374 1348 388 1358 20 14 9 44 -17 44 -22 0 -32 -19 -25 -47 4 -15
-205 -785 -352 -1300 -17 -57 -20 -59 -47 -39 -17 13 -13 47 74 667 63 449 97
659 107 671 8 10 12 24 9 33 -8 20 -43 19 -51 -1z m-671 -754 c42 -55 74 -100
71 -100 -2 0 -33 37 -69 83 -94 120 -85 118 -147 36 -29 -38 -58 -73 -64 -76
-5 -4 18 30 53 75 35 45 67 82 72 82 4 0 42 -45 84 -100z m-215 -74 c0 -2 -8
-10 -17 -17 -16 -13 -17 -12 -4 4 13 16 21 21 21 13z m-30 -40 c0 -2 -8 -10
-17 -17 -16 -13 -17 -12 -4 4 13 16 21 21 21 13z m341 -13 c13 -16 12 -17 -3
-4 -10 7 -18 15 -18 17 0 8 8 3 21 -13z m-211 -12 c0 -5 -21 -26 -47 -46 l-48
-38 45 46 c47 50 50 52 50 38z m105 -33 l40 -41 -42 33 c-24 18 -43 37 -43 42
0 13 4 10 45 -34z m-265 18 c0 -2 -8 -10 -17 -17 -16 -13 -17 -12 -4 4 13 16
21 21 21 13z m401 -13 c13 -16 12 -17 -3 -4 -10 7 -18 15 -18 17 0 8 8 3 21
-13z m48 -183 c205 -163 262 -215 249 -225 -8 -6 -467 192 -482 208 -22 22
-40 22 -57 -2 -8 -10 -113 -59 -234 -109 -292 -121 -262 -110 -242 -81 28 41
480 397 505 398 15 1 102 -63 261 -189z m-479 156 c0 -2 -8 -10 -17 -17 -16
-13 -17 -12 -4 4 13 16 21 21 21 13z m365 -36 c10 -11 16 -20 13 -20 -3 0 -13
9 -23 20 -10 11 -16 20 -13 20 3 0 13 -9 23 -20z m-275 6 c0 -2 -8 -10 -17
-17 -16 -13 -17 -12 -4 4 13 16 21 21 21 13z m-120 -10 c0 -2 -8 -10 -17 -17
-16 -13 -17 -12 -4 4 13 16 21 21 21 13z m451 -43 c13 -16 12 -17 -3 -4 -10 7
-18 15 -18 17 0 8 8 3 21 -13z m-481 3 c0 -2 -8 -10 -17 -17 -16 -13 -17 -12
-4 4 13 16 21 21 21 13z m531 -43 c13 -16 12 -17 -3 -4 -10 7 -18 15 -18 17 0
8 8 3 21 -13z m-561 3 c0 -2 -8 -10 -17 -17 -16 -13 -17 -12 -4 4 13 16 21 21
21 13z m30 -30 c0 -2 -8 -10 -17 -17 -16 -13 -17 -12 -4 4 13 16 21 21 21 13z
m581 -13 c13 -16 12 -17 -3 -4 -10 7 -18 15 -18 17 0 8 8 3 21 -13z m-641 3
c0 -2 -8 -10 -17 -17 -16 -13 -17 -12 -4 4 13 16 21 21 21 13z m10 -30 c0 -2
-8 -10 -17 -17 -16 -13 -17 -12 -4 4 13 16 21 21 21 13z m681 -13 c13 -16 12
-17 -3 -4 -10 7 -18 15 -18 17 0 8 8 3 21 -13z m-725 -5 c-3 -21 -16 -37 -38
-49 -18 -10 -17 -6 7 25 30 39 34 42 31 24z m363 -2 c-2 -2 -17 -6 -34 -10
-22 -5 -26 -4 -15 4 14 9 59 15 49 6z m71 -6 c11 -8 7 -9 -15 -4 -37 8 -45 14
-19 14 10 0 26 -5 34 -10z m356 -27 c19 -26 22 -33 9 -23 -43 32 -54 43 -49
51 8 13 9 12 40 -28z m-996 -197 c0 -3 -4 -8 -10 -11 -5 -3 -10 -1 -10 4 0 6
5 11 10 11 6 0 10 -2 10 -4z m517 -2 c-3 -3 -12 -4 -19 -1 -8 3 -5 6 6 6 11 1
17 -2 13 -5z m150 0 c-3 -3 -12 -4 -19 -1 -8 3 -5 6 6 6 11 1 17 -2 13 -5z
m550 -20 c11 -29 -13 -37 -31 -10 -16 25 -16 26 4 26 11 0 23 -7 27 -16z
m-1247 -8 c0 -22 -29 -41 -42 -28 -8 8 -8 15 2 27 16 19 40 20 40 1z m950 -19
l195 -23 3 -56 3 -56 -63 -10 c-102 -18 -440 -59 -478 -59 -19 0 -153 15 -297
35 l-263 35 0 53 0 53 43 6 c23 3 132 17 242 29 233 27 330 26 615 -7z m-1800
-24 c184 -26 330 -48 325 -49 -17 -5 -457 -54 -510 -56 l-50 -3 3 -36 c3 -30
-43 -484 -52 -514 -2 -8 -77 513 -92 648 -7 55 -6 57 17 57 13 0 175 -21 359
-47z m3300 30 c1 -29 -93 -698 -96 -688 -11 35 -55 486 -50 512 2 18 0 36 -6
39 -5 4 -42 7 -82 8 -84 3 -488 49 -465 54 43 8 638 90 667 91 24 1 32 -3 32
-16z m-1154 -15 c18 -20 18 -21 1 -15 -10 4 -23 7 -28 7 -5 0 -9 7 -9 15 0 21
14 19 36 -7z m-1406 -3 c-14 -17 -30 -20 -30 -6 0 5 8 12 18 14 9 3 19 5 21 6
2 0 -2 -6 -9 -14z m213 8 c-7 -2 -21 -2 -30 0 -10 3 -4 5 12 5 17 0 24 -2 18
-5z m1040 0 c-7 -2 -19 -2 -25 0 -7 3 -2 5 12 5 14 0 19 -2 13 -5z m72 -3 c3
-5 1 -10 -4 -10 -6 0 -11 5 -11 10 0 6 2 10 4 10 3 0 8 -4 11 -10z m-1275 -10
c0 -5 -7 -10 -16 -10 -8 0 -12 5 -9 10 3 6 10 10 16 10 5 0 9 -4 9 -10z m1455
-10 c13 -5 14 -9 5 -9 -8 0 -24 4 -35 9 -13 5 -14 9 -5 9 8 0 24 -4 35 -9z
m-1548 -6 c-3 -3 -12 -4 -19 -1 -8 3 -5 6 6 6 11 1 17 -2 13 -5z m1380 -9 c8
-22 -6 -33 -17 -15 -13 20 -12 30 0 30 6 0 13 -7 17 -15z m-1277 -4 c0 -4 -10
-21 -22 -36 -20 -26 -22 -27 -35 -9 -25 34 -15 46 45 53 6 0 12 -3 12 -8z m46
-7 c-3 -9 -6 -21 -6 -27 0 -8 -3 -8 -11 0 -13 13 -5 43 12 43 6 0 8 -7 5 -16z
m1318 7 c7 -11 -3 -41 -14 -41 -4 0 -15 11 -24 25 -16 24 -16 25 8 25 14 0 27
-4 30 -9z m-1493 -22 c-19 -15 -26 -17 -32 -7 -8 12 7 19 51 26 3 1 -6 -8 -19
-19z m1574 -30 c-6 -9 -75 -13 -75 -5 0 3 5 17 10 31 l10 26 30 -21 c17 -12
28 -26 25 -31z m10 40 c11 -17 -1 -21 -15 -4 -8 9 -8 15 -2 15 6 0 14 -5 17
-11z m-1628 -35 c-5 -6 -57 9 -57 16 0 16 35 17 47 2 7 -9 12 -17 10 -18z
m1496 10 c22 -29 21 -31 -13 -36 -16 -2 -25 2 -24 10 1 6 2 21 3 32 1 27 12
25 34 -6z m209 11 c1 -15 -27 -29 -45 -22 -26 10 -9 39 20 35 13 -2 24 -7 25
-13z m-1609 -15 c4 -16 0 -20 -17 -20 -29 0 -39 10 -25 27 16 19 36 16 42 -7z
m1337 -22 c0 -21 -16 -24 -23 -5 -2 6 -2 20 1 30 4 15 7 16 13 5 5 -7 9 -21 9
-30z m-1257 -6 c-22 -5 -27 6 -12 24 12 15 14 14 20 -3 4 -12 1 -19 -8 -21z
m67 7 c0 -11 -7 -19 -16 -19 -11 0 -14 5 -10 16 3 9 6 20 6 25 0 6 5 7 10 4 6
-3 10 -15 10 -26z m1507 25 c-3 -3 -12 -4 -19 -1 -8 3 -5 6 6 6 11 1 17 -2 13
-5z m-2020 -10 c-3 -3 -12 -4 -19 -1 -8 3 -5 6 6 6 11 1 17 -2 13 -5z m93 -3
c0 -5 -7 -12 -16 -15 -14 -5 -15 -4 -4 9 14 17 20 19 20 6z m2044 -6 c25 -19
9 -19 -24 0 -14 8 -19 14 -10 14 8 0 24 -6 34 -14z m99 8 c-7 -2 -21 -2 -30 0
-10 3 -4 5 12 5 17 0 24 -2 18 -5z m-2033 -13 c8 -5 11 -10 5 -10 -5 0 -17 5
-25 10 -8 5 -10 10 -5 10 6 0 17 -5 25 -10z m2117 -98 c151 -64 251 -111 268
-127 16 -17 63 -115 126 -267 l99 -241 -21 -33 c-11 -19 -24 -34 -29 -34 -12
0 -311 378 -315 398 -2 9 -4 20 -4 23 -1 4 -12 9 -25 11 -20 4 -425 315 -425
328 -1 9 64 49 74 45 6 -1 119 -48 252 -103z m-2161 77 c19 -11 34 -24 34 -29
0 -12 -378 -311 -398 -315 -9 -2 -20 -4 -23 -4 -4 -1 -9 -12 -11 -25 -4 -21
-315 -424 -328 -425 -3 -1 -15 14 -27 32 l-22 32 104 253 c74 177 113 260 133
278 16 15 130 69 263 124 129 54 236 99 238 99 2 1 19 -8 37 -20z m138 -5 c9
-22 8 -23 -14 -17 -21 5 -25 15 -13 26 11 11 20 8 27 -9z m65 7 c23 -6 23 -6
4 -30 l-20 -24 -22 32 c-20 28 -21 31 -4 30 10 -1 29 -4 42 -8z m1557 -6 c-22
-17 -36 -19 -36 -7 0 14 12 22 34 22 21 -1 21 -1 2 -15z m-1466 -11 c0 -2 -5
-15 -12 -29 l-12 -26 -13 32 c-7 17 -13 32 -13 34 0 1 11 0 25 -3 14 -2 25 -6
25 -8z m1409 -1 c-7 -10 -14 -20 -15 -21 -1 -2 -7 6 -14 17 -10 19 -8 21 16
21 24 0 25 -2 13 -17z m-2312 1 c-3 -3 -12 -4 -19 -1 -8 3 -5 6 6 6 11 1 17
-2 13 -5z m2219 -10 c-3 -9 -6 -21 -6 -27 0 -16 -20 14 -20 31 0 6 7 12 16 12
11 0 14 -5 10 -16z m51 -2 c9 -16 7 -20 -18 -29 -33 -13 -33 -13 -17 22 13 30
19 31 35 7z m860 12 c-3 -3 -12 -4 -19 -1 -8 3 -5 6 6 6 11 1 17 -2 13 -5z
m-3205 -14 c-12 -5 -27 -20 -32 -32 -7 -18 -9 -19 -9 -5 -1 24 20 46 44 46 18
0 18 -1 -3 -9z m1012 -42 c7 -29 -6 -36 -31 -20 -10 6 -10 15 -1 40 13 33 20
29 32 -20z m13 30 c-3 -8 -6 -5 -6 6 -1 11 2 17 5 13 3 -3 4 -12 1 -19z m1237
-15 c5 -16 2 -25 -14 -33 -18 -9 -20 -8 -20 14 0 56 20 67 34 19z m1009 30
c-7 -2 -19 -2 -25 0 -7 3 -2 5 12 5 14 0 19 -2 13 -5z m-2343 -23 c11 -21 4
-25 -19 -11 -7 5 -10 14 -7 20 10 15 14 14 26 -9z m1500 0 c-12 -22 -25 -26
-35 -10 -5 8 19 24 43 29 1 1 -2 -8 -8 -19z m84 12 c3 -5 -1 -9 -9 -9 -8 0
-12 4 -9 9 3 4 7 8 9 8 2 0 6 -4 9 -8z m-1674 -12 c11 0 21 -28 11 -34 -4 -3
-19 6 -32 21 -19 21 -21 25 -6 20 10 -4 22 -7 27 -7z m1357 -42 c-2 -13 -4 -5
-4 17 -1 22 1 32 4 23 2 -10 2 -28 0 -40z m1100 20 c-3 -7 -5 -2 -5 12 0 14 2
19 5 13 2 -7 2 -19 0 -25z m-2245 -12 c2 -19 0 -32 -4 -30 -8 5 -12 64 -4 64
2 0 6 -15 8 -34z m-135 1 c26 -10 29 -15 22 -35 -10 -27 -23 -22 -44 19 -18
33 -18 33 22 16z m1428 -17 c-18 -34 -30 -38 -39 -13 -7 18 17 43 41 43 11 0
10 -6 -2 -30z m-568 14 c-3 -3 -12 -4 -19 -1 -8 3 -5 6 6 6 11 1 17 -2 13 -5z
m613 2 c0 -3 -4 -8 -10 -11 -5 -3 -10 -1 -10 4 0 6 5 11 10 11 6 0 10 -2 10
-4z m-817 -13 c-7 -2 -19 -2 -25 0 -7 3 -2 5 12 5 14 0 19 -2 13 -5z m140 0
c-7 -2 -19 -2 -25 0 -7 3 -2 5 12 5 14 0 19 -2 13 -5z m544 -33 c-10 -25 -13
-27 -21 -13 -6 12 -4 20 10 30 24 17 24 17 11 -17z m187 14 c3 -8 2 -12 -4 -9
-6 3 -10 10 -10 16 0 14 7 11 14 -7z m-2487 -16 c-3 -8 -6 -5 -6 6 -1 11 2 17
5 13 3 -3 4 -12 1 -19z m1051 -19 l2 -34 -15 25 c-18 31 -19 53 -2 48 6 -3 13
-20 15 -39z m1278 -7 c-21 -22 -29 -10 -15 22 11 23 14 25 22 10 6 -11 4 -21
-7 -32z m1021 26 c-3 -8 -6 -5 -6 6 -1 11 2 17 5 13 3 -3 4 -12 1 -19z m-2402
-19 c14 -22 -3 -18 -26 7 -23 25 -23 26 -2 15 12 -6 25 -16 28 -22z m68 1 c3
-14 1 -20 -6 -17 -7 2 -14 14 -15 26 -4 28 13 20 21 -9z m132 12 c-3 -3 -11 0
-18 7 -9 10 -8 11 6 5 10 -3 15 -9 12 -12z m1250 -12 c-10 -11 -20 -18 -23
-15 -3 3 3 14 13 25 10 11 20 18 23 15 3 -3 -3 -14 -13 -25z m219 -178 c86
-115 156 -215 156 -223 0 -19 20 -39 38 -39 8 0 106 -68 218 -152 l204 -152
-32 -33 c-18 -18 -36 -33 -41 -33 -4 0 -119 45 -255 101 -159 65 -257 110
-274 127 -17 17 -68 122 -137 282 l-110 255 37 38 c20 20 37 37 38 37 1 0 72
-94 158 -208z m-1674 125 c0 -28 -205 -506 -227 -529 -16 -17 -114 -64 -277
-134 -138 -59 -254 -108 -257 -110 -3 -2 -22 14 -43 35 l-37 38 209 156 c115
87 215 157 223 157 19 0 39 20 39 39 0 8 69 106 152 217 l153 203 32 -31 c18
-18 33 -36 33 -41z m1315 -6 c-23 -23 -29 -5 -15 41 l13 43 8 -35 c6 -25 4
-39 -6 -49z m-2015 60 c-8 -5 -26 -11 -40 -15 -21 -5 -20 -3 5 9 32 15 60 20
35 6z m2910 -13 c10 -6 7 -7 -10 -2 -14 3 -32 11 -40 16 -10 6 -7 7 10 2 14
-3 32 -11 40 -16z m-2063 -54 c-11 -11 -27 7 -27 30 0 36 14 40 24 7 5 -17 6
-34 3 -37z m303 -40 c138 -55 253 -107 263 -119 l17 -20 18 20 c16 20 500 230
509 222 2 -3 1 -27 -3 -54 l-6 -49 -244 -170 c-134 -93 -255 -170 -269 -172
-19 -3 -89 39 -276 165 -138 92 -254 175 -259 183 -4 8 -10 35 -14 59 -5 33
-4 42 6 38 7 -2 123 -49 258 -103z m-350 38 c0 -4 -4 -13 -9 -21 -7 -11 -14
-7 -30 20 -29 47 -26 54 9 29 17 -12 30 -24 30 -28z m1285 9 c-17 -35 -35 -41
-35 -12 0 16 39 54 48 46 2 -2 -4 -17 -13 -34z m-2186 -30 c-6 -18 -13 -30
-15 -28 -2 2 1 18 7 36 6 18 13 30 15 28 2 -2 -1 -18 -7 -36z m3075 -11 c5
-17 4 -20 -2 -10 -5 8 -13 26 -16 40 -5 17 -4 20 2 10 5 -8 13 -26 16 -40z
m-2644 36 c0 -2 -8 -10 -17 -17 -16 -13 -17 -12 -4 4 13 16 21 21 21 13z
m2221 -13 c13 -16 12 -17 -3 -4 -10 7 -18 15 -18 17 0 8 8 3 21 -13z m-1827
-2 c3 -5 -1 -11 -9 -14 -9 -4 -12 -1 -8 9 6 16 10 17 17 5z m1302 -50 c-15
-15 -16 -13 -4 19 9 26 13 30 16 16 2 -10 -3 -26 -12 -35z m-1168 3 l2 -29
-14 25 c-19 31 -20 43 -3 38 6 -3 13 -18 15 -34z m1152 29 c0 -5 -5 -15 -10
-23 -8 -12 -10 -11 -10 8 0 12 5 22 10 22 6 0 10 -3 10 -7z m-1730 -6 c0 -2
-10 -12 -22 -23 l-23 -19 19 23 c18 21 26 27 26 19z m543 -17 c3 -11 1 -18 -4
-14 -5 3 -9 12 -9 20 0 20 7 17 13 -6z m1782 0 c10 -11 16 -20 13 -20 -3 0
-13 9 -23 20 -10 11 -16 20 -13 20 3 0 13 -9 23 -20z m-1716 -68 c1 -7 -3 -10
-9 -7 -5 3 -10 21 -9 38 1 31 1 31 9 7 4 -14 8 -31 9 -38z m61 22 c0 -2 -11 2
-25 8 -14 6 -25 15 -25 20 0 5 11 1 25 -8 14 -9 25 -18 25 -20z m-746 -5 c-16
-17 -38 -35 -49 -40 -11 -6 0 8 25 30 54 48 65 53 24 10z m1766 -9 c-15 -28
-20 -23 -13 13 4 18 9 25 15 19 6 -6 6 -18 -2 -32z m750 -37 c0 -8 -54 34 -75
58 -11 13 1 6 28 -15 26 -21 47 -40 47 -43z m-1860 -1 c0 -10 -10 -3 -25 20
-14 20 -25 41 -25 45 1 16 50 -48 50 -65z m1153 28 c-10 -17 -19 -26 -21 -20
-4 10 25 50 35 50 2 0 -4 -14 -14 -30z m-608 10 c13 -6 15 -9 5 -9 -8 0 -22 4
-30 9 -18 12 -2 12 25 0z m75 0 c-8 -5 -22 -9 -30 -9 -10 0 -8 3 5 9 27 12 43
12 25 0z m-646 -54 l26 -45 0 -334 c0 -256 -3 -337 -12 -344 -8 -6 -154 -13
-353 -16 l-340 -6 -42 25 c-24 14 -43 28 -43 32 0 12 548 117 592 115 l36 -2
-1 42 c-1 53 94 588 104 581 4 -2 19 -24 33 -48z m1276 -223 c30 -153 54 -295
53 -317 -3 -37 -2 -38 25 -33 20 4 544 -81 597 -97 6 -2 -12 -17 -39 -34 l-50
-32 -337 0 c-257 0 -339 3 -347 13 -5 7 -12 150 -15 352 l-5 340 24 43 c14 23
28 42 32 42 5 0 33 -125 62 -277z m-1115 157 l59 -65 -67 65 c-37 35 -67 69
-67 74 0 6 3 6 8 1 5 -6 35 -39 67 -75z m925 67 c0 -2 -10 -12 -22 -23 l-23
-19 19 23 c18 21 26 27 26 19z m51 -20 c-10 -9 -11 -8 -5 6 3 10 9 15 12 12 3
-3 0 -11 -7 -18z m-1912 -67 c-35 -38 -65 -70 -66 -70 -2 0 22 32 53 70 31 39
61 70 66 70 5 0 -19 -31 -53 -70z m2737 23 c36 -46 36 -47 5 -18 -30 28 -57
65 -48 65 3 0 22 -21 43 -47z m-2406 13 c0 -2 -8 -10 -17 -17 -16 -13 -17 -12
-4 4 13 16 21 21 21 13z m974 -404 c16 -17 34 -41 40 -54 15 -30 38 -29 53 2
7 14 111 124 233 245 l220 220 -15 -52 c-12 -40 -68 -124 -233 -350 -120 -164
-224 -298 -232 -298 -7 0 -114 133 -237 295 -199 264 -253 347 -253 393 0 8
347 -320 424 -401z m1127 391 c13 -16 12 -17 -3 -4 -17 13 -22 21 -14 21 2 0
10 -8 17 -17z m-1614 -185 c-2 -35 -3 -9 -3 57 0 66 1 94 3 63 2 -32 2 -86 0
-120z m-539 132 c-12 -16 -26 -30 -32 -30 -5 0 3 14 19 30 16 17 30 30 32 30
2 0 -6 -13 -19 -30z m2197 0 c16 -16 24 -30 19 -30 -6 0 -20 14 -32 30 -13 17
-21 30 -19 30 2 0 16 -13 32 -30z m320 -20 c10 -11 16 -20 13 -20 -3 0 -13 9
-23 20 -10 11 -16 20 -13 20 3 0 13 -9 23 -20z m-1275 -14 c0 -2 -8 -10 -17
-17 -16 -13 -17 -12 -4 4 13 16 21 21 21 13z m347 -28 c-3 -8 -6 -5 -6 6 -1
11 2 17 5 13 3 -3 4 -12 1 -19z m-2220 -20 c-3 -7 -5 -2 -5 12 0 14 2 19 5 13
2 -7 2 -19 0 -25z m1220 10 c-3 -8 -6 -5 -6 6 -1 11 2 17 5 13 3 -3 4 -12 1
-19z m2230 -15 c-3 -10 -5 -4 -5 12 0 17 2 24 5 18 2 -7 2 -21 0 -30z m-3177
23 c0 -2 -8 -10 -17 -17 -16 -13 -17 -12 -4 4 13 16 21 21 21 13z m290 -4 c0
-4 -24 -25 -52 -46 l-53 -38 50 46 c54 49 55 50 55 38z m1130 -55 c0 -4 -18 7
-40 24 -22 18 -40 34 -40 36 0 8 80 -52 80 -60z m140 60 c0 -2 -18 -18 -40
-36 -22 -17 -40 -28 -40 -23 0 5 17 21 38 35 39 27 42 29 42 24z m1150 -84 c0
-2 -22 13 -50 34 -27 20 -50 41 -50 46 0 4 23 -11 50 -34 28 -23 50 -44 50
-46z m211 70 c13 -16 12 -17 -3 -4 -17 13 -22 21 -14 21 2 0 10 -8 17 -17z
m-1871 -63 c21 -28 26 -38 12 -26 -26 22 -28 16 -7 -24 9 -17 13 -30 10 -30
-6 0 -50 88 -60 120 -8 29 -3 24 45 -40z m833 40 c-3 -11 -10 -20 -15 -20 -5
0 -7 -4 -4 -8 3 -5 -1 -9 -9 -9 -11 0 -9 7 6 29 24 33 29 35 22 8z m-12 -336
c-27 -187 -55 -350 -62 -362 -21 -34 1 -49 43 -30 18 9 170 36 338 62 168 26
316 49 330 52 25 5 25 5 4 -10 -18 -13 -804 -251 -854 -259 -9 -1 -14 4 -13
13 2 8 52 193 113 410 100 359 137 476 147 467 1 -2 -19 -157 -46 -343z m-751
-111 c66 -225 120 -415 120 -421 0 -7 -6 -12 -13 -12 -7 0 -190 50 -407 110
-359 100 -476 137 -467 147 8 8 685 -95 705 -108 17 -10 24 -11 33 -2 10 10 9
20 -4 45 -9 19 -36 165 -62 338 -25 168 -48 316 -51 330 -5 25 -5 25 10 3 9
-11 70 -205 136 -430z m-549 410 c-12 -20 -14 -14 -5 12 4 9 9 14 11 11 3 -2
0 -13 -6 -23z m1779 -38 c0 -5 -5 -3 -10 5 -5 8 -10 20 -10 25 0 6 5 3 10 -5
5 -8 10 -19 10 -25z m391 8 c13 -16 12 -17 -3 -4 -10 7 -18 15 -18 17 0 8 8 3
21 -13z m-2195 -39 c-8 -21 -15 -34 -15 -28 -1 15 20 76 25 71 2 -2 -2 -21
-10 -43z m887 -154 c-2 -2 -50 43 -106 100 l-102 104 106 -100 c59 -54 105
-101 102 -104z m-1700 175 c-3 -9 -8 -14 -10 -11 -3 3 -2 9 2 15 9 16 15 13 8
-4z m2636 -45 c0 -10 -3 -8 -9 5 -12 27 -12 43 0 25 5 -8 9 -22 9 -30z m721
-61 c15 -28 5 -23 -15 7 -9 15 -12 23 -6 20 6 -4 16 -16 21 -27z m71 4 c-12
-20 -14 -14 -5 12 4 9 9 14 11 11 3 -2 0 -13 -6 -23z m-2676 7 c-27 -12 -43
-12 -25 0 8 5 22 9 30 9 10 0 8 -3 -5 -9z m1970 -5 c39 -17 21 -18 -25 0 -19
7 -28 14 -20 14 8 0 29 -6 45 -14z m-2648 -22 c-4 -3 -1 -13 6 -22 11 -14 10
-14 -5 -2 -16 12 -16 31 -1 31 4 0 3 -3 0 -7z m2713 -3 c8 -5 11 -10 5 -10 -5
0 -17 5 -25 10 -8 5 -10 10 -5 10 6 0 17 -5 25 -10z m683 -10 c3 -13 -1 -24
-14 -30 -20 -11 -22 -8 -13 28 8 27 20 29 27 2z m-3473 -31 c0 -22 -12 -30
-29 -19 -9 5 -11 17 -7 35 6 22 9 25 21 15 8 -7 15 -21 15 -31z m1545 -278
c81 -145 149 -273 150 -285 1 -12 3 -24 4 -28 0 -5 10 -8 21 -8 11 0 21 3 21
8 1 4 3 17 4 28 2 23 295 567 301 561 5 -5 -319 -807 -326 -807 -4 0 -348 809
-358 844 -7 21 36 -52 183 -313z m235 316 c0 -2 -12 -14 -27 -28 l-28 -24 24
28 c23 25 31 32 31 24z m-803 -29 c-3 -8 -6 -5 -6 6 -1 11 2 17 5 13 3 -3 4
-12 1 -19z m1095 -43 c-10 -33 -21 -54 -25 -48 -6 10 32 118 39 110 2 -1 -5
-30 -14 -62z m-694 -16 c14 -32 17 -50 10 -60 -8 -11 -9 -10 -4 4 3 9 2 17 -3
17 -5 0 -11 12 -14 28 -3 15 -9 36 -13 47 -13 37 4 10 24 -36z m2038 40 c3 -6
0 -15 -7 -20 -22 -14 -28 -11 -22 11 6 22 18 26 29 9z m-3366 -41 c0 -4 -7 -5
-15 -2 -8 4 -15 16 -15 28 1 21 1 21 15 2 8 -11 15 -23 15 -28z m912 0 c-6 -6
-7 0 -4 19 5 21 7 23 10 9 2 -10 0 -22 -6 -28z m2399 8 c-10 -26 -21 -32 -34
-19 -4 3 3 17 15 30 26 28 32 25 19 -11z m123 -1 l6 -30 -20 24 c-16 19 -18
26 -8 32 15 9 14 11 22 -26z m-3339 7 c-3 -3 -11 0 -18 7 -9 10 -8 11 6 5 10
-3 15 -9 12 -12z m2338 -2 c3 -11 1 -18 -4 -14 -5 3 -9 12 -9 20 0 20 7 17 13
-6z m-2380 -26 c-5 -18 -26 -9 -35 15 -8 23 -8 23 14 9 13 -9 22 -19 21 -24z
m-167 -10 c-4 -14 -9 -24 -12 -21 -3 2 -2 17 2 31 3 15 9 25 11 22 3 -3 2 -17
-1 -32z m34 21 c-7 -9 -15 -13 -17 -11 -7 7 7 26 19 26 6 0 6 -6 -2 -15z
m3445 -29 c-7 -35 -7 -35 -32 -19 l-25 17 28 23 c15 12 30 21 32 19 2 -2 0
-20 -3 -40z m92 12 c-3 -7 -5 -2 -5 12 0 14 2 19 5 13 2 -7 2 -19 0 -25z
m-3497 -24 c0 -38 1 -38 -35 -24 l-26 10 21 30 c26 36 40 31 40 -16z m3460 11
c0 -7 -9 -15 -20 -18 -16 -4 -20 0 -20 17 0 13 3 26 7 29 8 9 33 -12 33 -28z
m-3417 0 c18 -13 18 -14 -1 -24 -17 -9 -20 -7 -24 14 -6 28 -1 30 25 10z m882
5 c-3 -5 -14 -10 -23 -9 -14 0 -13 2 3 9 27 11 27 11 20 0z m1601 -8 c-10 -2
-22 0 -28 6 -6 6 0 7 19 4 21 -5 23 -7 9 -10z m742 -4 c-8 -12 -21 -24 -29
-26 -8 -3 -3 7 10 22 30 32 39 34 19 4z m-3153 2 c3 -5 1 -10 -4 -10 -6 0 -11
5 -11 10 0 6 2 10 4 10 3 0 8 -4 11 -10z m1906 -27 c-12 -20 -14 -14 -5 12 4
9 9 14 11 11 3 -2 0 -13 -6 -23z m556 21 c-3 -3 -12 -4 -19 -1 -8 3 -5 6 6 6
11 1 17 -2 13 -5z m740 -32 c-12 -28 -14 -29 -37 -17 l-24 13 34 21 c19 11 35
19 37 17 2 -2 -2 -17 -10 -34z m206 17 c4 -16 3 -18 -9 -8 -16 13 -19 29 -5
29 5 0 11 -9 14 -21z m-3348 -9 c10 -11 14 -20 8 -20 -5 0 -18 9 -28 20 -10
11 -14 20 -8 20 5 0 18 -9 28 -20z m-94 -32 c8 -15 6 -16 -21 -7 -35 13 -36
17 -12 35 13 9 18 10 21 1 2 -7 8 -20 12 -29z m39 27 c25 -13 41 -35 26 -35
-2 0 -11 -3 -20 -6 -10 -4 -20 5 -31 25 -18 35 -15 37 25 16z m3060 0 c0 -12
-19 -12 -23 0 -4 9 -1 12 9 8 7 -3 14 -7 14 -8z m185 6 c3 -6 -4 -15 -15 -21
-22 -12 -23 -10 -14 14 7 18 20 21 29 7z m119 -13 c14 -54 4 -60 -39 -26 -26
20 -27 22 -9 35 26 19 41 16 48 -9z m-3514 -8 c13 -9 11 -13 -10 -30 -21 -16
-26 -17 -28 -4 -4 19 5 44 15 44 4 0 15 -5 23 -10z m-55 -29 c-3 -12 -13 -21
-21 -21 -18 0 -18 9 3 32 20 22 27 17 18 -11z m1935 25 c0 -2 -8 -10 -17 -17
-16 -13 -17 -12 -4 4 13 16 21 21 21 13z m1537 -42 c-2 -3 -16 1 -31 7 l-27
13 28 11 c25 10 28 9 31 -7 2 -11 2 -22 -1 -24z m133 25 c0 -5 -4 -9 -10 -9
-5 0 -10 7 -10 16 0 8 5 12 10 9 6 -3 10 -10 10 -16z m-310 -19 c-23 -32 -28
-34 -49 -21 -11 7 -7 14 20 30 47 29 54 26 29 -9z m-3198 -5 c7 -32 -3 -38
-37 -25 l-27 10 24 20 c30 25 35 25 40 -5z m3264 16 c-7 -11 -46 -21 -46 -12
0 13 13 21 32 21 11 0 17 -4 14 -9z m163 -5 c9 -11 8 -15 -5 -20 -23 -9 -24
-8 -24 14 0 23 13 26 29 6z m-3366 -6 c16 0 -14 -20 -30 -20 -7 0 -13 7 -13
16 0 11 5 14 16 10 9 -3 21 -6 27 -6z m107 -5 c18 -22 7 -28 -24 -14 -19 9
-23 15 -14 21 18 11 24 10 38 -7z m50 0 c34 -18 39 -35 11 -35 -10 0 -26 11
-35 25 -19 29 -16 30 24 10z m3121 -9 l33 -14 -39 -11 c-45 -12 -49 -10 -40
18 8 25 5 24 46 7z m201 -3 c23 -21 23 -33 -1 -33 -22 0 -45 25 -36 40 9 14
15 13 37 -7z m-1285 -40 c-3 -10 -5 -2 -5 17 0 19 2 27 5 18 2 -10 2 -26 0
-35z m1021 35 c-3 -7 -18 -14 -34 -16 -28 -2 -28 -2 -10 13 24 18 49 20 44 3z
m-3394 -7 c3 -5 -5 -16 -19 -25 -24 -16 -25 -15 -25 2 0 10 3 22 7 25 9 10 31
9 37 -2z m215 -10 c14 -25 5 -31 -31 -20 -42 12 -45 17 -17 28 34 14 37 13 48
-8z m58 -13 c-20 -13 -34 -9 -40 11 -4 16 -1 17 24 8 19 -8 24 -14 16 -19z
m990 -5 c-3 -10 -5 -4 -5 12 0 17 2 24 5 18 2 -7 2 -21 0 -30z m2328 26 c4 -6
5 -12 2 -15 -7 -7 -37 7 -37 17 0 13 27 11 35 -2z m-1805 -73 c0 -5 -10 4 -22
20 -33 44 -36 53 -6 19 15 -16 28 -34 28 -39z m120 70 c0 -2 -8 -10 -17 -17
-16 -13 -17 -12 -4 4 13 16 21 21 21 13z m-1840 -15 c0 -10 -30 -24 -37 -17
-3 3 -2 9 2 15 8 13 35 15 35 2z m3117 -16 c-15 -14 -36 -25 -45 -25 -10 0 -1
11 23 25 51 31 58 31 22 0z m73 21 c0 -2 -9 -6 -20 -9 -11 -3 -18 -1 -14 4 5
9 34 13 34 5z m291 -6 c6 0 7 -4 4 -10 -10 -16 -45 -12 -45 6 0 11 5 14 16 10
9 -3 20 -6 25 -6z m-3531 -10 c0 -5 -5 -10 -11 -10 -5 0 -7 5 -4 10 3 6 8 10
11 10 2 0 4 -4 4 -10z m390 -5 c11 -13 8 -13 -19 -4 -35 12 -40 19 -12 19 10
0 24 -7 31 -15z m2944 6 c4 -5 -8 -12 -25 -16 -33 -7 -45 -3 -34 14 8 13 52
14 59 2z m133 3 c-3 -3 -12 -4 -19 -1 -8 3 -5 6 6 6 11 1 17 -2 13 -5z m-3357
-14 c0 -5 -15 -10 -32 -10 -25 0 -29 3 -18 10 20 13 50 13 50 0z m210 -5 c19
-23 7 -28 -41 -14 l-44 12 30 8 c17 3 33 7 36 8 4 0 12 -6 19 -14z m149 -24
c-6 -2 -21 7 -33 19 l-21 23 33 -19 c18 -10 28 -20 21 -23z m2779 27 c-3 -7
-18 -14 -34 -16 l-29 -2 25 14 c31 19 43 20 38 4z m422 2 c0 -5 -2 -10 -4 -10
-3 0 -8 5 -11 10 -3 6 -1 10 4 10 6 0 11 -4 11 -10z m-1822 -20 c-7 -10 -14
-17 -17 -15 -4 4 18 35 25 35 2 0 -1 -9 -8 -20z m1580 13 c-10 -2 -26 -2 -35
0 -10 3 -2 5 17 5 19 0 27 -2 18 -5z m-3048 -13 c12 -8 11 -10 -7 -10 -13 0
-23 5 -23 10 0 13 11 13 30 0z m-172 -7 c-10 -2 -28 -2 -40 0 -13 2 -5 4 17 4
22 1 32 -1 23 -4z m995 -10 c-7 -2 -19 -2 -25 0 -7 3 -2 5 12 5 14 0 19 -2 13
-5z m1230 0 c-7 -2 -21 -2 -30 0 -10 3 -4 5 12 5 17 0 24 -2 18 -5z m529 0
c-40 -2 -103 -2 -140 0 -37 2 -4 3 73 3 77 0 107 -2 67 -3z m228 -3 c-36 -11
-52 -11 -45 0 3 6 21 10 38 9 31 -1 31 -1 7 -9z m404 -22 c3 -18 17 -134 30
-258 28 -254 27 -315 -7 -610 l-22 -195 -56 -3 -57 -3 -5 33 c-14 76 -64 476
-64 508 0 19 16 153 35 298 l35 262 53 0 c52 0 53 -1 58 -32z m-3079 12 c3 -6
-1 -7 -9 -4 -18 7 -21 14 -7 14 6 0 13 -4 16 -10z m2822 -2 c-129 -329 -205
-506 -221 -519 -19 -16 -19 -16 0 -35 21 -21 229 -502 221 -510 -3 -3 -27 -2
-54 2 l-49 6 -172 248 c-96 139 -172 258 -172 270 0 19 296 476 336 519 11 12
38 20 108 30 4 0 6 -5 3 -11z m26 -3 c-3 -9 -8 -14 -10 -11 -3 3 -2 9 2 15 9
16 15 13 8 -4z m254 -22 c-3 -10 -5 -4 -5 12 0 17 2 24 5 18 2 -7 2 -21 0 -30z
m-3493 -5 c13 -77 63 -476 63 -508 0 -19 -16 -153 -35 -297 l-35 -263 -53 0
c-52 0 -53 1 -58 33 -10 56 -53 490 -53 527 0 41 45 485 52 518 5 19 12 22 59
22 53 0 54 -1 60 -32z m331 22 c4 -7 -3 -8 -22 -4 -38 9 -42 14 -10 14 14 0
29 -5 32 -10z m-85 -19 c127 -175 340 -495 340 -511 0 -24 -326 -517 -350
-530 -8 -4 -35 -10 -59 -14 -33 -5 -42 -4 -38 6 129 329 205 507 222 521 l20
17 -21 18 c-15 13 -162 343 -220 496 -7 17 -3 18 47 11 30 -4 56 -11 59 -14z
m2840 15 c0 -3 -4 -8 -10 -11 -5 -3 -10 -1 -10 4 0 6 5 11 10 11 6 0 10 -2 10
-4z m-3307 -21 c-3 -9 -8 -14 -10 -11 -3 3 -2 9 2 15 9 16 15 13 8 -4z m4048
-248 c104 -130 189 -246 189 -257 0 -11 -85 -128 -190 -259 -163 -206 -214
-262 -225 -249 -7 8 195 472 209 480 21 12 20 42 -2 59 -15 11 -143 302 -208
474 -19 49 54 -31 227 -248z m-4127 121 c-30 -73 -74 -178 -96 -233 -23 -55
-50 -108 -60 -118 -23 -23 -23 -41 1 -58 14 -11 141 -300 207 -472 6 -17 5
-18 -15 -5 -34 20 -401 486 -401 508 0 11 79 120 176 242 171 217 216 268 234
268 5 0 -16 -60 -46 -132z m586 122 c0 -5 -2 -10 -4 -10 -3 0 -8 5 -11 10 -3
6 -1 10 4 10 6 0 11 -4 11 -10z m2527 4 c-3 -3 -12 -4 -19 -1 -8 3 -5 6 6 6
11 1 17 -2 13 -5z m178 -2 c-6 -5 -39 -35 -75 -67 l-65 -59 65 67 c35 37 69
67 74 67 6 0 6 -3 1 -8z m-2555 -78 l55 -58 -70 64 c-38 35 -72 66 -75 68 -3
3 4 0 15 -6 11 -6 45 -37 75 -68z m123 69 c-7 -2 -19 -2 -25 0 -7 3 -2 5 12 5
14 0 19 -2 13 -5z m64 -9 c-3 -3 -12 -4 -19 -1 -8 3 -5 6 6 6 11 1 17 -2 13
-5z m2125 -191 c-223 -232 -243 -252 -274 -267 -30 -15 -29 -38 2 -53 14 -7
124 -111 245 -233 l220 -220 -49 14 c-57 17 -66 24 -401 269 -137 101 -250
190 -250 197 0 19 581 457 630 474 22 8 46 15 54 15 7 1 -72 -88 -177 -196z
m-1939 -58 c166 -121 302 -227 302 -235 0 -8 -115 -101 -255 -207 -321 -243
-344 -259 -403 -277 l-48 -14 211 218 c224 232 231 238 264 255 28 14 27 37
-4 52 -14 7 -123 111 -244 231 l-219 220 47 -11 c36 -8 111 -58 349 -232z
m1290 161 c18 -3 18 -4 -3 -3 -19 2 -25 8 -26 27 -1 20 0 21 3 3 2 -12 14 -24
26 -27z m-1493 22 c0 -5 4 -7 8 -4 5 3 9 -1 9 -9 0 -11 -7 -9 -29 6 -33 24
-35 29 -8 22 11 -3 20 -10 20 -15z m676 -13 c-3 -8 -16 -14 -28 -14 l-23 2 23
4 c14 3 22 12 23 26 0 12 3 16 6 9 3 -7 2 -19 -1 -27z m-1652 13 c-16 -28 -37
-47 -46 -42 -6 4 3 17 18 30 33 27 38 29 28 12z m4140 -39 c-7 -12 -30 6 -46
34 -10 19 -8 18 21 -2 17 -13 29 -27 25 -32z m-3109 21 c3 -6 -1 -7 -9 -4 -18
7 -21 14 -7 14 6 0 13 -4 16 -10z m194 -44 c24 -7 40 -15 35 -18 -5 -3 -27 3
-49 13 -48 21 -44 23 14 5z m1602 -17 c-35 -16 -66 -27 -69 -24 -3 3 1 5 8 5
7 0 10 3 6 8 -4 4 16 14 46 24 78 24 81 20 9 -13z m-1696 -9 c3 0 3 5 -1 12
-5 7 -3 8 5 3 9 -5 10 -10 2 -18 -15 -15 -41 -17 -38 -4 1 7 -5 13 -13 13 -29
3 -31 4 -25 14 4 6 17 4 35 -5 16 -8 32 -15 35 -15z m3026 13 c13 -16 12 -17
-3 -4 -10 7 -18 15 -18 17 0 8 8 3 21 -13z m-1266 -6 c-77 -53 -552 -310 -573
-311 -22 -1 -27 -6 -27 -26 0 -20 5 -25 27 -26 25 -1 573 -292 565 -300 -5 -5
-807 319 -807 326 0 5 809 348 825 349 5 1 1 -5 -10 -12z m-1585 -1 c0 -2 -7
-7 -16 -10 -8 -3 -12 -2 -9 4 6 10 25 14 25 6z m315 -171 c217 -88 395 -162
395 -165 0 -6 -842 -361 -846 -357 -7 7 583 330 605 331 21 1 26 6 26 26 0 20
-5 25 -26 26 -22 1 -500 252 -554 292 -29 21 -32 22 400 -153z m435 141 c-7
-7 -13 -7 -20 0 -6 6 -3 10 10 10 13 0 16 -4 10 -10z m670 -11 c-14 -8 -29
-14 -35 -14 -5 0 1 6 15 14 14 8 30 14 35 14 6 0 -1 -6 -15 -14z m1471 -2 c13
-16 12 -17 -3 -4 -10 7 -18 15 -18 17 0 8 8 3 21 -13z m-1951 -36 c0 -7 -7
-22 -15 -33 -13 -17 -13 -16 -3 14 13 34 18 40 18 19z m-381 -27 c11 -24 11
-24 -3 -6 -9 11 -16 24 -16 30 0 12 5 7 19 -24z m1115 -114 c-55 -57 -101
-102 -103 -99 -5 3 189 203 197 203 2 0 -40 -47 -94 -104z m-1164 74 c18 -12
2 -12 -25 0 -13 6 -15 9 -5 9 8 0 22 -4 30 -9z m490 3 c-8 -3 -24 -10 -35 -15
-20 -9 -20 -9 -1 6 11 9 27 16 35 15 14 0 14 -1 1 -6z m-979 -40 c13 -16 12
-17 -3 -4 -17 13 -22 21 -14 21 2 0 10 -8 17 -17z m1842 -53 c-26 -38 -51 -70
-55 -70 -4 0 15 32 43 70 28 39 53 70 56 70 2 0 -18 -31 -44 -70z m-3523 56
c0 -2 -8 -10 -17 -17 -16 -13 -17 -12 -4 4 13 16 21 21 21 13z m150 0 c0 -2
-8 -10 -17 -17 -16 -13 -17 -12 -4 4 13 16 21 21 21 13z m4671 -13 c13 -16 12
-17 -3 -4 -17 13 -22 21 -14 21 2 0 10 -8 17 -17z m-1711 3 c0 -2 -8 -10 -17
-17 -16 -13 -17 -12 -4 4 13 16 21 21 21 13z m897 -18 c-3 -8 -6 -5 -6 6 -1
11 2 17 5 13 3 -3 4 -12 1 -19z m-2247 -34 c0 -3 -13 4 -30 16 -16 12 -30 24
-30 26 0 3 14 -4 30 -16 17 -12 30 -24 30 -26z m-1800 32 c0 -2 -34 -31 -76
-65 -66 -55 -74 -64 -62 -79 12 -15 11 -16 -4 -3 -10 7 -18 17 -18 22 0 4 35
35 78 68 79 61 82 64 82 57z m1555 -56 c33 -33 57 -60 54 -60 -2 0 -31 27 -64
60 -33 33 -57 60 -54 60 2 0 31 -27 64 -60z m3346 43 c13 -16 12 -17 -3 -4
-10 7 -18 15 -18 17 0 8 8 3 21 -13z m-4530 -20 c-12 -20 -14 -14 -5 12 4 9 9
14 11 11 3 -2 0 -13 -6 -23z m2739 23 c0 -2 -8 -10 -17 -17 -16 -13 -17 -12
-4 4 13 16 21 21 21 13z m-2990 -46 c-17 -22 -34 -40 -37 -40 -6 0 10 22 41
58 32 37 30 25 -4 -18z m3694 -14 c-9 -26 -18 -45 -21 -42 -3 3 3 25 12 51 10
25 19 44 21 42 2 -2 -3 -25 -12 -51z m1226 -56 c0 -4 -19 -23 -42 -40 l-43
-32 40 36 40 36 -35 27 c-68 54 -84 74 -22 28 34 -25 62 -50 62 -55z m-4463
68 c-3 -8 -6 -5 -6 6 -1 11 2 17 5 13 3 -3 4 -12 1 -19z m1308 -26 c14 -8 15
-11 5 -11 -8 0 -31 13 -50 30 -31 27 -31 29 -5 11 17 -10 39 -24 50 -30z
m1155 18 c-19 -16 -39 -30 -44 -30 -5 0 8 13 30 30 50 38 59 38 14 0z m997 -2
c-3 -7 -5 -2 -5 12 0 14 2 19 5 13 2 -7 2 -19 0 -25z m270 10 c-3 -8 -6 -5 -6
6 -1 11 2 17 5 13 3 -3 4 -12 1 -19z m-3460 -10 c-3 -8 -6 -5 -6 6 -1 11 2 17
5 13 3 -3 4 -12 1 -19z m242 -38 c0 -13 -1 -13 -8 0 -5 8 -12 26 -15 40 l-7
25 15 -25 c9 -14 15 -32 15 -40z m271 29 c15 -28 5 -23 -15 7 -9 15 -12 23 -6
20 6 -4 16 -16 21 -27z m-1009 -15 c-5 -16 -10 -21 -10 -12 -1 18 10 51 15 45
2 -1 -1 -16 -5 -33z m4188 -4 c0 -10 -3 -8 -9 5 -12 27 -12 43 0 25 5 -8 9
-22 9 -30z m252 13 c13 -16 12 -17 -3 -4 -10 7 -18 15 -18 17 0 8 8 3 21 -13z
m-2371 -13 c0 -5 -5 -10 -11 -10 -5 0 -7 5 -4 10 3 6 8 10 11 10 2 0 4 -4 4
-10z m55 0 c3 -5 1 -10 -4 -10 -6 0 -11 5 -11 10 0 6 2 10 4 10 3 0 8 -4 11
-10z m-350 -46 c-37 -28 -52 -34 -52 -20 0 7 7 13 16 12 11 -1 15 6 13 19 -2
16 -1 17 7 5 10 -14 16 -7 11 15 -1 6 5 4 12 -3 11 -11 10 -16 -7 -28z m631
16 c0 -12 -4 -16 -9 -11 -5 5 -6 14 -3 20 10 15 12 14 12 -9z m-1676 -47 c-11
-17 -11 -17 -6 0 3 10 6 24 7 30 0 9 2 9 5 0 3 -7 0 -20 -6 -30z m440 -66
l-94 -92 89 95 c50 52 92 94 95 92 2 -1 -38 -44 -90 -95z m1780 78 c13 -14 21
-25 18 -25 -2 0 -15 11 -28 25 -13 14 -21 25 -18 25 2 0 15 -11 28 -25z m509
-20 c0 -5 -4 -3 -9 5 -5 8 -9 22 -9 30 0 16 17 -16 18 -35z m721 -2 c-11 -17
-11 -17 -6 0 3 10 7 26 7 35 1 15 2 15 6 0 2 -10 -1 -25 -7 -35z m-4156 -44
c3 -13 -3 -6 -13 16 -11 22 -20 47 -20 55 0 17 23 -34 33 -71z m2046 71 c0 -5
-2 -10 -4 -10 -3 0 -8 5 -11 10 -3 6 -1 10 4 10 6 0 11 -4 11 -10z m60 6 c0
-3 -4 -8 -10 -11 -5 -3 -10 -1 -10 4 0 6 5 11 10 11 6 0 10 -2 10 -4z m-2337
-76 c54 -70 48 -66 -29 19 -27 30 -43 52 -35 50 7 -3 36 -34 64 -69z m1186 0
c-28 -38 -53 -70 -56 -70 -2 0 18 31 44 70 26 38 51 70 55 70 4 0 -15 -31 -43
-70z m561 66 c0 -2 -18 -16 -40 -31 -22 -15 -37 -31 -34 -36 3 -5 3 -9 0 -9
-3 0 -7 4 -10 9 -4 5 13 23 36 40 42 31 48 34 48 27z m732 -418 c98 -232 176
-423 175 -424 -7 -8 -330 583 -331 605 -1 21 -6 26 -26 26 -20 0 -25 -5 -26
-26 -1 -25 -292 -574 -300 -566 -5 5 319 807 326 807 3 0 85 -190 182 -422z
m399 405 c13 -17 13 -17 -6 -3 -11 8 -22 16 -24 17 -2 2 0 3 6 3 6 0 17 -8 24
-17z m523 -23 c14 -22 25 -40 23 -40 -2 0 -18 18 -36 40 -17 22 -28 40 -23 40
5 0 21 -18 36 -40z m1256 36 c0 -2 -8 -10 -17 -17 -16 -13 -17 -12 -4 4 13 16
21 21 21 13z m-3953 -38 c-3 -8 -6 -5 -6 6 -1 11 2 17 5 13 3 -3 4 -12 1 -19z
m3190 -10 c-3 -7 -5 -2 -5 12 0 14 2 19 5 13 2 -7 2 -19 0 -25z m-3460 -10
c-3 -7 -5 -2 -5 12 0 14 2 19 5 13 2 -7 2 -19 0 -25z m2484 15 c13 -16 12 -17
-3 -4 -17 13 -22 21 -14 21 2 0 10 -8 17 -17z m1246 -5 c-3 -8 -6 -5 -6 6 -1
11 2 17 5 13 3 -3 4 -12 1 -19z m204 -25 c-12 -20 -14 -14 -5 12 4 9 9 14 11
11 3 -2 0 -13 -6 -23z m-4520 -10 c13 -16 12 -17 -3 -4 -10 7 -18 15 -18 17 0
8 8 3 21 -13z m1799 13 c0 -2 -8 -10 -17 -17 -16 -13 -17 -12 -4 4 13 16 21
21 21 13z m1801 -33 c13 -16 12 -17 -3 -4 -17 13 -22 21 -14 21 2 0 10 -8 17
-17z m456 -5 c-3 -8 -6 -5 -6 6 -1 11 2 17 5 13 3 -3 4 -12 1 -19z m-3460 -30
c-3 -7 -5 -2 -5 12 0 14 2 19 5 13 2 -7 2 -19 0 -25z m1629 -13 c-11 -8 -27
-15 -35 -15 -9 1 -2 7 14 15 39 18 44 18 21 0z m484 -8 c13 -5 13 -6 -1 -6 -8
-1 -24 6 -35 15 -19 15 -19 15 1 6 11 -5 27 -12 35 -15z m370 -127 c223 -62
421 -121 440 -131 l35 -19 -40 6 c-301 39 -656 94 -673 105 -17 10 -24 11 -33
2 -10 -10 -9 -20 4 -45 9 -19 36 -165 62 -338 25 -168 48 -316 50 -330 4 -20
1 -18 -14 11 -20 37 -251 813 -251 844 0 9 3 14 8 12 4 -3 189 -55 412 -117z
m-840 83 c-5 -16 -57 -199 -115 -408 -95 -343 -132 -461 -141 -452 -8 8 95
685 107 705 10 17 11 24 2 33 -10 10 -20 9 -45 -4 -19 -9 -166 -36 -338 -62
-168 -25 -316 -48 -330 -51 -23 -4 -23 -3 5 13 34 19 808 251 842 252 20 1 21
-2 13 -26z m27 -3 c-7 -17 -13 -26 -15 -21 -3 10 15 51 22 51 3 0 -1 -14 -7
-30z m382 -20 c0 -10 -3 -8 -9 5 -12 27 -12 43 0 25 5 -8 9 -22 9 -30z m-1089
-24 c0 -2 -8 -10 -17 -17 -16 -13 -17 -12 -4 4 13 16 21 21 21 13z m906 -28
c4 -6 3 -8 -4 -4 -5 3 -20 -6 -32 -21 l-21 -28 16 33 c16 33 29 40 41 20z
m-946 -2 c0 -2 -8 -10 -17 -17 -16 -13 -17 -12 -4 4 13 16 21 21 21 13z m205
-16 c3 -6 -1 -7 -9 -4 -9 3 -16 2 -16 -4 0 -5 -12 -12 -27 -15 -16 -3 -37 -8
-48 -11 -11 -4 3 5 30 18 58 29 62 29 70 16z m1550 -16 c28 -13 41 -22 30 -18
-11 3 -32 8 -47 11 -16 3 -28 10 -28 15 0 6 -7 7 -16 4 -8 -3 -12 -2 -9 4 8
13 12 13 70 -16z m1295 12 c0 -2 -8 -10 -17 -17 -16 -13 -17 -12 -4 4 13 16
21 21 21 13z m-3080 -26 c9 -16 8 -19 -6 -13 -11 4 -15 3 -10 -5 3 -6 1 -14
-5 -18 -7 -4 -9 -3 -5 4 3 6 2 14 -4 17 -8 5 -7 11 1 21 15 18 16 18 29 -6z
m-270 -75 c-41 -41 -78 -75 -82 -75 -8 0 143 149 152 150 2 0 -29 -34 -70 -75z
m190 35 c-19 -17 -30 -30 -25 -31 6 0 -1 -5 -14 -10 -39 -15 -34 -5 17 33 57
44 70 49 22 8z m990 10 c-6 -11 -13 -20 -16 -20 -2 0 0 9 6 20 6 11 13 20 16
20 2 0 0 -9 -6 -20z m2145 11 c3 -5 -9 -20 -27 -32 -31 -22 -31 -12 0 24 17
20 19 20 27 8z m-4147 -32 l14 -24 -20 22 c-11 12 -22 20 -25 17 -3 -3 -8 -1
-11 4 -3 6 2 9 11 8 9 -2 23 -14 31 -27z m1658 -12 c1 -24 1 -24 -3 -3 -3 15
-13 27 -26 30 -18 3 -18 4 3 3 20 -2 25 -8 26 -30z m822 26 c-20 -3 -28 -10
-29 -26 0 -12 -3 -16 -6 -9 -9 24 6 42 34 41 l28 -2 -27 -4z m-895 -10 c-7 -2
-19 -2 -25 0 -7 3 -2 5 12 5 14 0 19 -2 13 -5z m980 0 c-7 -2 -19 -2 -25 0 -7
3 -2 5 12 5 14 0 19 -2 13 -5z m-1056 -9 c-3 -3 -12 -4 -19 -1 -8 3 -5 6 6 6
11 1 17 -2 13 -5z m1638 -4 c3 -5 -1 -10 -10 -10 -9 0 -13 5 -10 10 3 6 8 10
10 10 2 0 7 -4 10 -10z m206 -57 c13 -16 12 -17 -3 -4 -17 13 -22 21 -14 21 2
0 10 -8 17 -17z m-894 -25 c-3 -7 -5 -2 -5 12 0 14 2 19 5 13 2 -7 2 -19 0
-25z m-810 -10 c-3 -7 -5 -2 -5 12 0 14 2 19 5 13 2 -7 2 -19 0 -25z m-650 16
c-3 -3 -12 -4 -19 -1 -8 3 -5 6 6 6 11 1 17 -2 13 -5z m2200 0 c-3 -3 -12 -4
-19 -1 -8 3 -5 6 6 6 11 1 17 -2 13 -5z m-2260 -10 c-3 -3 -12 -4 -19 -1 -8 3
-5 6 6 6 11 1 17 -2 13 -5z m-277 -14 c0 -5 -5 -10 -11 -10 -5 0 -7 5 -4 10 3
6 8 10 11 10 2 0 4 -4 4 -10z m2776 -10 c8 0 14 -4 14 -10 0 -15 -24 -12 -46
6 -17 14 -17 15 -1 10 10 -3 25 -6 33 -6z m-81 -18 c-3 -3 -11 0 -18 7 -9 10
-8 11 6 5 10 -3 15 -9 12 -12z m-2650 -2 c-3 -5 -21 -10 -38 -9 -31 1 -31 1
-7 9 36 11 52 11 45 0z m175 -6 c0 -2 -14 -4 -31 -4 -16 0 -28 4 -25 9 5 8 56
3 56 -5z m1263 -74 c5 -8 -6 3 -26 25 -20 22 -36 46 -37 54 0 8 12 -4 26 -25
15 -21 31 -46 37 -54z m1124 83 c-20 -2 -52 -2 -70 0 -17 2 0 4 38 4 39 0 53
-2 32 -4z m-2814 -10 c-13 -2 -35 -2 -50 0 -16 2 -5 4 22 4 28 0 40 -2 28 -4z
m665 0 c-27 -2 -69 -2 -95 0 -27 2 -5 3 47 3 52 0 74 -1 48 -3z m285 0 c-34
-2 -93 -2 -130 0 -37 2 -9 3 62 3 72 0 102 -1 68 -3z m592 -37 c-37 -48 -42
-46 -9 4 15 22 29 38 31 36 3 -3 -7 -21 -22 -40z m678 37 c-7 -2 -19 -2 -25 0
-7 3 -2 5 12 5 14 0 19 -2 13 -5z m-386 -304 c153 -201 228 -309 239 -342 9
-27 14 -50 13 -52 -7 -6 -450 430 -462 455 -7 14 -19 25 -27 25 -8 0 -20 -11
-27 -25 -7 -14 -111 -124 -233 -245 -219 -219 -220 -220 -206 -172 8 26 22 60
32 74 14 23 252 349 386 531 22 29 45 51 51 49 7 -2 112 -136 234 -298z m1080
276 c40 -24 56 -45 33 -45 -5 0 -134 -24 -288 -54 -155 -30 -291 -52 -306 -49
-27 6 -29 4 -23 -23 4 -22 -80 -544 -97 -599 -1 -5 -17 13 -34 40 l-32 50 0
336 c0 257 3 339 13 347 7 6 110 11 272 12 142 0 261 3 264 5 2 3 38 5 79 5
63 0 83 -4 119 -25z m49 3 l19 -21 -30 18 c-41 26 -40 25 -23 25 8 0 23 -10
34 -22z m84 13 c0 -5 -9 -7 -20 -4 -11 3 -20 7 -20 9 0 2 9 4 20 4 11 0 20 -4
20 -9z m85 -5 l30 -12 -34 -7 c-20 -4 -39 -3 -47 4 -34 28 -2 38 51 15z m100
5 c-18 -7 -55 -4 -55 5 0 2 17 4 38 3 28 0 32 -2 17 -8z m-3048 -17 c-30 -16
-44 -14 -32 5 3 6 18 11 33 11 l27 -1 -28 -15z m103 12 c0 -7 -72 -47 -77 -43
-6 7 48 47 63 47 8 0 14 -2 14 -4z m728 -8 c5 -8 12 -151 15 -353 l5 -340 -24
-42 c-14 -24 -28 -43 -32 -43 -12 0 -117 549 -114 594 2 37 1 38 -25 33 -22
-4 -215 27 -568 92 l-40 7 50 32 50 32 336 0 c258 0 339 -3 347 -12z m-1273
-8 c3 -5 1 -10 -4 -10 -6 0 -11 5 -11 10 0 6 2 10 4 10 3 0 8 -4 11 -10z m263
3 c-10 -2 -26 -2 -35 0 -10 3 -2 5 17 5 19 0 27 -2 18 -5z m120 -5 c-6 -16
-33 -22 -56 -13 -15 6 -15 8 3 15 31 13 57 12 53 -2z m2918 -16 c-10 -2 -26 3
-35 12 -15 15 -13 16 19 4 26 -9 30 -13 16 -16z m294 18 c-20 -13 -50 -13 -50
0 0 6 15 10 33 10 24 0 28 -3 17 -10z m-3430 -16 c0 -11 -5 -14 -16 -10 -9 3
-21 6 -27 6 -16 0 14 20 31 20 6 0 12 -7 12 -16z m1137 -21 c-3 -10 -5 -4 -5
12 0 17 2 24 5 18 2 -7 2 -21 0 -30z m2343 27 c0 -13 -28 -25 -38 -16 -3 4 0
11 8 16 20 13 30 12 30 0z m30 6 c0 -3 -4 -8 -10 -11 -5 -3 -10 -1 -10 4 0 6
5 11 10 11 6 0 10 -2 10 -4z m32 -38 c-6 -6 -19 -8 -29 -4 -16 7 -16 9 7 26
22 17 25 17 28 3 2 -8 -1 -20 -6 -25z m-3495 26 c-3 -3 -12 -4 -19 -1 -8 3 -5
6 6 6 11 1 17 -2 13 -5z m238 -4 c-3 -5 -14 -10 -23 -9 -14 0 -13 2 3 9 27 11
27 11 20 0z m2988 -9 c4 -16 1 -17 -24 -8 -19 8 -24 14 -16 19 20 13 34 9 40
-11z m77 9 c11 -7 9 -11 -13 -19 -36 -14 -34 -14 -47 9 -10 18 -8 20 17 20 15
0 35 -4 43 -10z m-3470 -15 c10 -12 10 -19 2 -27 -13 -13 -42 6 -42 28 0 19
24 18 40 -1z m73 5 c8 0 8 -3 0 -11 -13 -13 -43 -5 -43 12 0 6 7 8 16 5 9 -3
21 -6 27 -6z m147 -2 c-1 -31 -16 -40 -45 -26 l-28 12 29 13 c37 16 44 16 44
1z m53 -15 c-33 -17 -51 -13 -38 6 3 6 21 11 38 10 l32 0 -32 -16z m3041 -8
c9 -14 14 -25 10 -25 -12 0 -64 34 -64 42 0 18 39 6 54 -17z m255 9 c4 -4 -41
-43 -50 -44 -8 0 -18 48 -11 55 5 4 53 -4 61 -11z m-3210 -3 c11 -7 7 -14 -20
-30 -47 -29 -54 -26 -29 9 23 32 28 34 49 21z m3010 -5 c21 -11 21 -14 6 -20
-18 -6 -45 9 -45 25 0 12 11 11 39 -5z m-3263 -33 c-3 -3 -13 0 -22 8 -15 12
-14 14 3 20 17 6 32 -15 19 -28z m3384 21 c0 -11 -5 -14 -16 -10 -9 3 -21 6
-27 6 -16 0 14 20 31 20 6 0 12 -7 12 -16z m-3323 -7 l23 -13 -30 -11 c-28
-11 -30 -10 -30 13 0 27 5 29 37 11z m116 -8 c-6 -6 -19 -9 -29 -6 -17 3 -16
5 6 14 28 12 39 8 23 -8z m1648 4 c13 -16 12 -17 -3 -4 -17 13 -22 21 -14 21
2 0 10 -8 17 -17z m1655 -28 c-3 -8 -13 -11 -25 -8 -27 7 -26 17 2 36 19 13
22 13 25 0 2 -8 1 -20 -2 -28z m54 37 c0 -5 -9 -17 -20 -27 -20 -18 -25 -11
-14 19 6 17 34 23 34 8z m-3563 -26 l28 -24 -28 -13 c-32 -14 -35 -13 -43 29
-8 39 4 41 43 8z m-57 -2 c0 -8 -4 -12 -10 -9 -5 3 -10 10 -10 16 0 5 5 9 10
9 6 0 10 -7 10 -16z m3405 -14 c9 -16 12 -30 7 -30 -6 0 -44 22 -62 37 -5 4
21 23 32 23 4 0 14 -13 23 -30z m40 18 c30 -13 31 -19 7 -35 -16 -9 -20 -7
-29 18 -13 33 -13 33 22 17z m-3209 -19 c4 -8 -56 -52 -63 -45 -1 1 3 16 9 33
8 22 16 29 30 25 10 -2 21 -8 24 -13z m3022 -4 c-3 -3 -9 2 -12 12 -6 14 -5
15 5 6 7 -7 10 -15 7 -18z m-3088 8 c-1 -19 -19 -35 -30 -28 -10 6 -9 11 5 22
22 15 25 16 25 6z m3175 -23 c10 -11 14 -20 8 -20 -5 0 -18 9 -28 20 -10 11
-14 20 -8 20 5 0 18 -9 28 -20z m-3345 -21 c0 -18 -18 -9 -23 12 -4 16 -3 18
9 8 8 -6 14 -15 14 -20z m2120 16 c4 3 13 -15 19 -39 6 -24 13 -52 16 -62 3
-11 -8 8 -24 41 -16 33 -29 65 -29 70 0 6 2 4 5 -3 2 -6 8 -10 13 -7z m1204
-23 l37 -39 -209 -156 c-115 -87 -215 -157 -223 -157 -19 0 -39 -20 -39 -38 0
-8 -68 -106 -152 -218 l-152 -204 -33 32 c-18 18 -33 36 -33 41 0 5 45 120
101 256 65 158 110 256 127 273 17 17 122 68 282 137 140 60 255 110 255 110
1 1 18 -16 39 -37z m211 28 l26 -10 -21 -30 c-26 -36 -40 -31 -40 16 0 38 -1
38 35 24z m-3390 -29 c3 -5 -8 -19 -25 -31 -32 -23 -34 -20 -24 28 5 27 9 30
25 22 10 -6 20 -14 24 -19z m125 26 c0 -2 -12 -14 -27 -28 -24 -22 -24 -13 0
19 8 11 27 17 27 9z m3212 -21 c4 -22 3 -23 -18 -14 -22 10 -22 12 -6 24 9 7
18 14 18 14 1 0 4 -11 6 -24z m-3406 -33 c-5 -12 -9 -13 -21 -3 -20 17 -19 38
3 42 19 4 27 -14 18 -39z m483 -54 c160 -65 255 -110 273 -127 21 -21 177
-361 238 -518 7 -17 1 -29 -29 -58 l-37 -37 -157 209 c-86 115 -157 215 -157
223 0 19 -20 39 -39 39 -8 0 -106 69 -217 152 l-203 153 31 32 c18 18 36 33
42 33 5 0 120 -45 255 -101z m388 85 c-3 -3 -12 -4 -19 -1 -8 3 -5 6 6 6 11 1
17 -2 13 -5z m2453 -4 c0 -5 -2 -10 -4 -10 -3 0 -8 5 -11 10 -3 6 -1 10 4 10
6 0 11 -4 11 -10z m181 -31 c-6 -16 -10 -18 -10 -7 -1 22 12 55 16 42 2 -6 -1
-22 -6 -35z m-2577 22 c4 -5 -3 -7 -14 -4 -23 6 -26 13 -6 13 8 0 17 -4 20 -9z
m1606 5 c0 -2 -9 -6 -20 -9 -11 -3 -18 -1 -14 4 5 9 34 13 34 5z m-2603 -38
c-3 -7 -5 -2 -5 12 0 14 2 19 5 13 2 -7 2 -19 0 -25z m3436 2 c4 -17 2 -18
-14 -9 -20 10 -24 21 -13 32 10 10 21 0 27 -23z m-3395 -31 c-15 -9 -14 -11
-22 26 l-6 30 20 -24 c16 -19 18 -26 8 -32z m136 42 c3 -4 -6 -19 -21 -32
l-25 -24 7 25 c4 14 13 28 19 32 14 10 14 10 20 -1z m3371 -10 c-3 -6 -11 -11
-17 -11 -6 0 -6 6 2 15 14 17 26 13 15 -4z m-2517 -22 c-3 -8 -7 -3 -11 10 -4
17 -3 21 5 13 5 -5 8 -16 6 -23z m407 -17 c-17 -38 -33 -60 -21 -27 4 11 10
32 13 47 3 15 9 25 14 22 5 -3 2 -21 -6 -42z m1107 21 c-3 -16 -7 -22 -10 -15
-4 13 4 42 11 42 2 0 2 -12 -1 -27z m936 -4 c2 -23 2 -23 -13 -5 -18 24 -20
39 -2 34 6 -3 13 -15 15 -29z m-3365 -9 c-5 -20 -15 -25 -26 -13 -8 7 11 33
23 33 5 0 6 -9 3 -20z m3427 -15 c0 -7 -3 -21 -6 -29 -5 -13 -9 -14 -20 -5
-14 12 -19 41 -8 52 9 9 34 -4 34 -18z m-3488 -36 l-9 -34 -11 25 c-8 20 -7
28 6 37 21 17 25 11 14 -28z m1718 37 c0 -2 -8 -10 -17 -17 -16 -13 -17 -12
-4 4 13 16 21 21 21 13z m95 -56 c33 -33 57 -60 54 -60 -2 0 -31 27 -64 60
-33 33 -57 60 -54 60 2 0 31 -27 64 -60z m-1698 32 c-10 -10 -17 -24 -17 -31
0 -7 -5 -9 -11 -6 -7 5 -2 16 12 31 26 28 40 33 16 6z m2360 -4 c-3 -8 -6 -5
-6 6 -1 11 2 17 5 13 3 -3 4 -12 1 -19z m-2442 2 c3 -5 1 -10 -4 -10 -6 0 -11
5 -11 10 0 6 2 10 4 10 3 0 8 -4 11 -10z m2735 -30 c-8 -5 -19 -10 -25 -10 -5
0 -3 5 5 10 8 5 20 10 25 10 6 0 3 -5 -5 -10z m-2749 -27 c-12 -20 -14 -14 -5
12 4 9 9 14 11 11 3 -2 0 -13 -6 -23z m3406 -5 c25 -36 36 0 -100 -330 -53
-127 -96 -216 -112 -233 -17 -16 -116 -63 -267 -126 l-240 -99 -34 21 c-19 11
-34 24 -34 29 0 12 378 311 398 315 9 2 20 4 23 4 4 1 9 12 11 25 4 20 315
425 328 425 3 1 15 -13 27 -31z m-2662 12 c13 -6 15 -9 5 -9 -8 0 -22 4 -30 9
-18 12 -2 12 25 0z m1955 0 c-8 -5 -22 -9 -30 -9 -10 0 -8 3 5 9 27 12 43 12
25 0z m-2490 -190 c83 -104 153 -198 154 -207 2 -10 16 -24 32 -32 21 -10 345
-261 423 -328 5 -3 -22 -26 -49 -42 -22 -13 -508 188 -545 225 -16 16 -63 115
-126 266 l-99 241 21 33 c11 19 24 34 29 34 4 0 76 -85 160 -190z m599 105 c0
-5 -4 -3 -9 5 -5 8 -9 22 -9 30 0 16 17 -16 18 -35z m1811 0 c-16 -47 -23 -40
-8 8 6 20 13 35 16 33 2 -3 -1 -21 -8 -41z m-488 -40 c34 -74 33 -91 -2 -43
-12 17 -18 28 -11 24 16 -10 14 -1 -9 44 -11 22 -18 40 -15 40 3 0 20 -29 37
-65z m1299 22 c-10 -9 -11 -8 -5 6 3 10 9 15 12 12 3 -3 0 -11 -7 -18z m-1330
-14 c13 -16 12 -17 -3 -4 -17 13 -22 21 -14 21 2 0 10 -8 17 -17z m-1630 -30
c13 -16 12 -17 -3 -4 -10 7 -18 15 -18 17 0 8 8 3 21 -13z m2499 13 c0 -2 -8
-10 -17 -17 -16 -13 -17 -12 -4 4 13 16 21 21 21 13z m-1290 -25 c0 -4 -19
-21 -42 -35 l-43 -28 40 36 c44 39 45 40 45 27z m200 -98 c0 -2 -31 18 -70 44
-38 26 -70 51 -70 55 0 4 32 -15 70 -43 39 -28 70 -53 70 -56z m-1330 43 c0
-5 -13 3 -30 19 -16 16 -30 30 -30 32 0 2 14 -6 30 -19 17 -12 30 -26 30 -32z
m744 45 c3 -5 -1 -14 -8 -20 -12 -10 -13 -8 -9 8 6 23 9 25 17 12z m1611 -21
c-16 -16 -31 -27 -34 -24 -5 4 48 53 58 54 3 0 -8 -13 -24 -30z m-2918 -27
c-3 -10 -5 -4 -5 12 0 17 2 24 5 18 2 -7 2 -21 0 -30z m1996 -130 c137 -93
252 -175 257 -183 4 -8 10 -35 14 -59 5 -33 4 -42 -6 -38 -258 100 -507 206
-520 222 l-18 20 -17 -20 c-18 -21 -501 -231 -509 -222 -3 3 -2 27 1 53 l7 49
246 172 c153 107 256 172 272 173 15 0 115 -61 273 -167z m1207 153 c0 -2 -8
-10 -17 -17 -16 -13 -17 -12 -4 4 13 16 21 21 21 13z m247 -28 c-3 -7 -5 -2
-5 12 0 14 2 19 5 13 2 -7 2 -19 0 -25z m-1220 0 c-3 -8 -6 -5 -6 6 -1 11 2
17 5 13 3 -3 4 -12 1 -19z m-1007 -25 c-11 -17 -11 -17 -6 0 3 10 6 24 7 30 0
9 2 9 5 0 3 -7 0 -20 -6 -30z m-1215 -223 c15 -129 25 -248 22 -265 -7 -48 0
-55 46 -49 33 5 471 -38 511 -50 11 -3 -648 -96 -682 -96 -14 0 -22 6 -22 18
-1 28 93 697 96 687 2 -6 15 -116 29 -245z m3510 -93 c25 -180 45 -336 45
-347 0 -12 -7 -20 -17 -20 -27 -1 -696 94 -687 97 32 9 485 54 509 50 48 -7
55 0 49 46 -3 23 6 142 20 264 14 121 26 229 27 240 1 39 10 -13 54 -330z
m-2338 256 c-2 -16 -4 -3 -4 27 0 30 2 43 4 28 2 -16 2 -40 0 -55z m-872 47
c10 -11 16 -20 13 -20 -3 0 -13 9 -23 20 -10 11 -16 20 -13 20 3 0 13 -9 23
-20z m2855 17 c0 -2 -10 -12 -22 -23 l-23 -19 19 23 c18 21 26 27 26 19z
m-2530 -39 l23 -33 -31 29 c-34 31 -37 36 -24 36 5 0 19 -15 32 -32z m2220 29
c0 -2 -14 -16 -32 -33 l-31 -29 23 33 c20 27 40 42 40 29z m-2468 -99 c31 -45
14 -32 -28 20 -21 26 -28 38 -15 27 13 -11 32 -32 43 -47z m1848 -51 c-3 -2
-29 23 -59 57 l-55 61 59 -57 c33 -32 57 -59 55 -61z m854 68 c-20 -25 -41
-45 -47 -45 -6 0 9 20 33 45 24 25 46 45 48 45 2 0 -13 -20 -34 -45z m-2413
-2 c13 -16 12 -17 -3 -4 -10 7 -18 15 -18 17 0 8 8 3 21 -13z m2119 13 c0 -2
-8 -10 -17 -17 -16 -13 -17 -12 -4 4 13 16 21 21 21 13z m-1607 -61 c-3 -9 -8
-14 -10 -11 -3 3 -2 9 2 15 9 16 15 13 8 -4z m77 11 c0 -2 -8 -10 -17 -17 -16
-13 -17 -12 -4 4 13 16 21 21 21 13z m-740 -113 c0 -2 -20 12 -45 33 -25 20
-45 40 -45 45 0 4 20 -11 45 -33 25 -23 45 -43 45 -45z m1799 51 c12 -20 20
-38 18 -41 -7 -6 -47 48 -47 63 0 22 6 17 29 -22z m-1179 -18 l-23 -21 19 33
c10 18 20 28 23 21 2 -6 -7 -21 -19 -33z m1870 40 c0 -2 -21 -20 -47 -41 l-48
-37 45 41 c45 41 50 45 50 37z m-1817 -48 c-5 -27 -23 -40 -23 -17 0 13 20 52
25 47 2 -1 1 -15 -2 -30z m1086 -11 c-1 -31 -1 -31 -9 -7 -11 36 -11 52 0 45
6 -3 10 -21 9 -38z m-579 24 c-8 -5 -26 -12 -40 -15 l-25 -7 25 15 c14 9 32
15 40 15 13 0 13 -1 0 -8z m70 -1 c18 -12 2 -12 -25 0 -13 6 -15 9 -5 9 8 0
22 -4 30 -9z m480 -42 c0 -5 -11 -1 -25 8 -14 9 -25 18 -25 20 0 2 11 -2 25
-8 14 -6 25 -15 25 -20z m66 -45 c-11 -11 -26 10 -26 35 l1 27 15 -28 c9 -16
13 -31 10 -34z m-1189 15 c-8 -24 -12 -28 -15 -15 -2 10 2 24 8 32 19 22 20
18 7 -17z m1211 1 c-3 -8 -7 -3 -11 10 -4 17 -3 21 5 13 5 -5 8 -16 6 -23z
m-1777 4 c13 -16 12 -17 -3 -4 -10 7 -18 15 -18 17 0 8 8 3 21 -13z m595 -20
c-11 -11 -17 4 -9 23 7 18 8 18 11 1 2 -10 1 -21 -2 -24z m1744 33 c0 -2 -8
-10 -17 -17 -16 -13 -17 -12 -4 4 13 16 21 21 21 13z m-2706 -56 c5 -17 4 -20
-2 -10 -5 8 -13 26 -16 40 -5 17 -4 20 2 10 5 -8 13 -26 16 -40z m3065 11 c-6
-18 -13 -30 -15 -28 -2 2 1 18 7 36 6 18 13 30 15 28 2 -2 -1 -18 -7 -36z
m-815 5 c-3 -9 -10 -13 -15 -10 -5 3 -3 11 4 19 15 16 19 13 11 -9z m-48 -28
c20 -38 15 -42 -20 -15 -19 15 -25 27 -21 39 9 22 21 15 41 -24z m-1296 13 c0
-10 -11 -26 -25 -35 -29 -19 -30 -16 -10 24 18 34 35 39 35 11z m60 -15 c0 -7
-5 -28 -12 -47 l-12 -34 -7 35 c-5 21 -3 40 3 47 14 17 28 16 28 -1z m1168
-10 c2 -9 1 -25 -3 -34 -6 -15 -8 -15 -15 3 -13 31 -12 57 3 53 6 -3 14 -12
15 -22z m39 -82 c-12 -13 -27 9 -26 39 l0 32 16 -32 c9 -18 14 -36 10 -39z
m-2077 34 c10 -6 7 -7 -10 -2 -14 3 -32 11 -40 16 -10 6 -7 7 10 2 14 -3 32
-11 40 -16z m715 -8 c-10 -11 -20 -18 -23 -15 -3 3 3 14 13 25 10 11 20 18 23
15 3 -3 -3 -14 -13 -25z m85 23 c-1 -5 -7 -19 -14 -32 -11 -21 -14 -21 -20 -6
-3 10 -1 24 5 31 12 15 29 19 29 7z m1308 -22 c4 -28 -13 -20 -21 9 -3 14 -1
20 6 17 7 -2 14 -14 15 -26z m73 2 l24 -27 -24 15 c-14 9 -27 21 -29 27 -6 19
3 14 29 -15z m729 17 c-8 -5 -19 -10 -25 -10 -5 0 -3 5 5 10 8 5 20 10 25 10
6 0 3 -5 -5 -10z m-2080 -36 c0 -7 -8 -14 -19 -17 -16 -4 -17 -1 -8 24 11 27
26 23 27 -7z m-1073 -6 c-3 -8 -6 -5 -6 6 -1 11 2 17 5 13 3 -3 4 -12 1 -19z
m2408 -19 c17 -33 16 -34 -20 -17 -23 10 -33 37 -19 51 10 10 22 -1 39 -34z
m-1411 15 c9 -22 9 -22 -24 -39 -34 -18 -36 -15 -15 25 17 33 30 38 39 14z
m1521 -24 l30 -35 -32 29 c-18 17 -33 34 -33 40 0 5 1 7 3 5 1 -2 16 -20 32
-39z m-257 -16 c-3 -27 -4 -26 -9 8 -3 22 -1 34 4 29 5 -5 7 -21 5 -37z
m-1151 -16 c-2 -13 -4 -5 -4 17 -1 22 1 32 4 23 2 -10 2 -28 0 -40z m-177 32
c0 -5 -5 -10 -11 -10 -5 0 -7 5 -4 10 3 6 8 10 11 10 2 0 4 -4 4 -10z m131
-57 c-8 -16 -11 -15 -21 12 -9 25 -8 31 7 43 16 12 18 10 21 -12 2 -14 -1 -33
-7 -43z m556 61 c-3 -3 -12 -4 -19 -1 -8 3 -5 6 6 6 11 1 17 -2 13 -5z m130 0
c-3 -3 -12 -4 -19 -1 -8 3 -5 6 6 6 11 1 17 -2 13 -5z m571 -2 c10 -7 10 -15
-2 -42 -15 -37 -13 -39 -32 33 -6 18 12 23 34 9z m163 -28 l24 -26 -25 7 c-27
8 -42 24 -34 37 7 11 8 11 35 -18z m-2474 -16 c-3 -7 -5 -2 -5 12 0 14 2 19 5
13 2 -7 2 -19 0 -25z m1992 -8 c117 -16 217 -30 222 -30 5 0 9 -25 9 -55 0
-53 0 -54 -32 -59 -57 -10 -492 -54 -528 -54 -39 1 -482 46 -517 54 -20 4 -23
10 -23 58 0 63 -29 53 250 90 102 14 196 27 210 29 56 8 207 -4 409 -33z
m-1099 15 c-1 -6 -10 -13 -21 -17 -17 -7 -18 -5 -9 13 11 20 33 23 30 4z m89
-17 c-17 -33 -18 -33 -33 -12 -13 17 -12 20 12 30 34 14 37 12 21 -18z m1359
-26 c-27 -5 -31 1 -17 32 l13 27 11 -28 c10 -25 9 -28 -7 -31z m42 48 c11 -7
12 -12 3 -21 -8 -8 -14 -6 -22 10 -12 22 -5 27 19 11z m-1360 -37 c0 -7 -7
-13 -16 -13 -11 0 -14 5 -10 16 3 9 6 21 6 27 0 16 20 -14 20 -30z m1247 5
c-3 -8 -6 -5 -6 6 -1 11 2 17 5 13 3 -3 4 -12 1 -19z m189 -35 c-2 -2 -20 0
-40 4 -36 8 -36 8 -20 32 l17 24 23 -29 c13 -15 22 -30 20 -31z m-1538 6 c-30
-8 -32 -5 -16 20 12 20 14 20 26 4 11 -16 10 -19 -10 -24z m-875 24 c-7 -2
-19 -2 -25 0 -7 3 -2 5 12 5 14 0 19 -2 13 -5z m2457 -14 c0 -15 -22 -21 -31
-8 -14 22 -11 28 11 22 11 -3 20 -9 20 -14z m803 14 c-7 -2 -19 -2 -25 0 -7 3
-2 5 12 5 14 0 19 -2 13 -5z m-3196 -9 c-3 -3 -12 -4 -19 -1 -8 3 -5 6 6 6 11
1 17 -2 13 -5z m771 -6 c-3 -7 -15 -14 -29 -16 -23 -2 -23 -2 -5 13 24 18 39
20 34 3z m156 -46 c-9 -37 -11 -38 -33 -11 -26 31 -26 37 2 41 32 6 38 0 31
-30z m49 26 c2 -7 2 -21 -1 -31 -4 -15 -7 -16 -13 -5 -12 17 -11 48 0 48 5 0
11 -6 14 -12z m1193 -4 c-3 -9 -6 -20 -6 -25 0 -6 -4 -7 -10 -4 -16 10 -12 45
6 45 11 0 14 -5 10 -16z m-1626 -9 c14 -8 19 -14 10 -14 -8 0 -24 6 -34 14
-25 19 -9 19 24 0z m1690 6 c0 -5 -6 -14 -14 -20 -11 -9 -15 -7 -19 9 -4 15 0
20 14 20 10 0 19 -4 19 -9z m240 -1 c8 -5 11 -10 5 -10 -5 0 -17 5 -25 10 -8
5 -10 10 -5 10 6 0 17 -5 25 -10z m114 -4 c-10 -8 -21 -12 -24 -10 -5 6 21 24
34 24 6 0 1 -6 -10 -14z m-1744 0 c0 -3 -5 -17 -10 -31 l-10 -26 -30 21 c-17
12 -28 26 -25 31 6 9 75 13 75 5z m1440 -42 c0 -11 -30 -24 -57 -24 -19 0 -16
14 9 45 20 26 22 27 35 9 7 -10 13 -23 13 -30z m53 39 c9 -8 -12 -33 -28 -33
-7 0 -15 9 -18 20 -4 16 0 20 17 20 13 0 26 -3 29 -7z m-1599 -11 c11 -19 -12
-35 -40 -28 -28 7 -28 8 -10 22 22 16 42 18 50 6z m1706 -2 c11 -1 10 -4 -4
-15 -26 -20 -33 -19 -47 6 -10 20 -9 21 12 16 13 -4 31 -7 39 -7z m-1556 -25
c15 -23 15 -25 -1 -25 -28 0 -44 15 -37 33 9 23 19 21 38 -8z m1303 -9 c-4 -9
-11 -16 -18 -16 -6 0 -8 7 -5 16 3 9 6 21 6 27 0 8 3 8 11 0 7 -7 9 -19 6 -27z
m190 8 c-1 -1 -15 -4 -32 -8 l-30 -6 24 20 c19 16 26 18 32 8 4 -7 7 -13 6
-14z m-1607 1 c11 -13 10 -14 -4 -9 -9 3 -16 10 -16 15 0 13 6 11 20 -6z m184
-11 c4 -9 4 -19 2 -21 -8 -8 -26 8 -26 23 0 19 16 18 24 -2z m-154 -24 c13 -9
13 -10 0 -10 -8 0 -22 5 -30 10 -13 9 -13 10 0 10 8 0 22 -5 30 -10z m1547 4
c-3 -3 -12 -4 -19 -1 -8 3 -5 6 6 6 11 1 17 -2 13 -5z m-1463 -10 c17 -6 23
-34 8 -34 -5 0 -17 9 -27 20 -18 20 -11 25 19 14z m1361 -4 c-3 -5 -11 -10
-16 -10 -6 0 -7 5 -4 10 3 6 11 10 16 10 6 0 7 -4 4 -10z m55 1 c0 -5 -9 -11
-21 -14 -16 -4 -18 -3 -8 9 13 16 29 19 29 5z m-1340 -11 c0 -5 -2 -10 -4 -10
-3 0 -8 5 -11 10 -3 6 -1 10 4 10 6 0 11 -4 11 -10z m1245 -1 c7 -11 -22 -49
-37 -49 -12 0 -10 34 4 48 15 15 25 15 33 1z m-1261 -24 c12 -18 13 -25 4 -25
-23 0 -41 18 -35 34 8 21 12 20 31 -9z m1149 18 c-7 -2 -21 -2 -30 0 -10 3 -4
5 12 5 17 0 24 -2 18 -5z m57 -43 c0 -5 -5 -10 -11 -10 -5 0 -7 5 -4 10 3 6 8
10 11 10 2 0 4 -4 4 -10z m-513 -6 c-3 -3 -12 -4 -19 -1 -8 3 -5 6 6 6 11 1
17 -2 13 -5z m-232 -206 c55 -23 106 -49 114 -60 17 -23 45 -23 62 1 11 14
277 130 477 209 12 4 12 1 0 -17 -20 -34 -485 -401 -508 -401 -11 0 -120 79
-242 176 -218 172 -268 216 -268 234 0 5 60 -16 133 -46 72 -30 177 -74 232
-96z m-73 -131 c102 -81 188 -157 191 -168 7 -26 47 -26 54 0 4 16 338 293
391 325 8 4 -81 -118 -197 -273 -117 -154 -216 -281 -221 -281 -5 0 -105 126
-221 281 -116 155 -204 277 -197 272 8 -4 98 -75 200 -156z m183 113 c13 -6
15 -9 5 -9 -8 0 -22 4 -30 9 -18 12 -2 12 25 0z m82 -6 c-3 -3 -12 -4 -19 -1
-8 3 -5 6 6 6 11 1 17 -2 13 -5z"/>
</g>
</svg>
