<?xml version="1.0" standalone="no"?>
<!DOCTYPE svg PUBLIC "-//W3C//DTD SVG 20010904//EN"
 "http://www.w3.org/TR/2001/REC-SVG-20010904/DTD/svg10.dtd">
<svg version="1.0" xmlns="http://www.w3.org/2000/svg"
 width="283.000000pt" height="283.000000pt" viewBox="0 0 283.000000 283.000000"
 preserveAspectRatio="xMidYMid meet">
<metadata>
Created by potrace 1.14, written by Peter Selinger 2001-2017
</metadata>
<g transform="translate(0.000000,283.000000) scale(0.100000,-0.100000)"
fill="#000000" stroke="none">
<path d="M559 2700 l-25 -5 0 -940 c0 -1044 3 -975 -70 -1263 -54 -209 -48
-302 26 -386 109 -124 325 -22 318 149 -2 42 -14 107 -33 175 -2 8 -16 56 -30
105 -14 50 -30 119 -36 155 -11 68 -23 290 -16 290 3 0 31 -18 63 -39 229
-152 463 -89 777 208 48 46 87 79 87 75 7 -155 81 -277 200 -333 47 -22 68
-26 150 -26 82 0 103 4 150 27 120 57 188 169 215 357 7 49 -2 61 -41 53 -16
-3 -26 -13 -30 -31 -36 -164 -81 -224 -168 -225 -81 -1 -126 50 -141 161 -6
43 -10 361 -10 782 0 624 -2 710 -15 713 -13 3 -235 2 -292 -1 -17 -1 -18 -41
-18 -683 l0 -683 -93 -69 c-124 -93 -255 -155 -338 -160 -132 -8 -234 48 -292
160 -37 71 -39 125 -41 818 l-1 620 -136 0 c-74 1 -146 -1 -160 -4z"/>
</g>
</svg>
