<?xml version="1.0" encoding="UTF-8" standalone="no"?>
<svg
   xmlns:dc="http://purl.org/dc/elements/1.1/"
   xmlns:cc="http://creativecommons.org/ns#"
   xmlns:rdf="http://www.w3.org/1999/02/22-rdf-syntax-ns#"
   xmlns:svg="http://www.w3.org/2000/svg"
   xmlns="http://www.w3.org/2000/svg"
   xmlns:xlink="http://www.w3.org/1999/xlink"
   xmlns:sodipodi="http://sodipodi.sourceforge.net/DTD/sodipodi-0.dtd"
   xmlns:inkscape="http://www.inkscape.org/namespaces/inkscape"
   version="1.1"
   viewBox="0 0 511.20151 510.96725"
   id="svg936"
   sodipodi:docname="logo.svg"
   width="511.20151"
   height="510.96725"
   inkscape:version="1.0.2 (e86c870879, 2021-01-15)">
  <metadata
     id="metadata942">
    <rdf:RDF>
      <cc:Work
         rdf:about="">
        <dc:format>image/svg+xml</dc:format>
        <dc:type
           rdf:resource="http://purl.org/dc/dcmitype/StillImage" />
        <dc:title></dc:title>
      </cc:Work>
    </rdf:RDF>
  </metadata>
  <defs
     id="defs940" />
  <sodipodi:namedview
     pagecolor="#ffffff"
     bordercolor="#666666"
     borderopacity="1"
     objecttolerance="10"
     gridtolerance="10"
     guidetolerance="10"
     inkscape:pageopacity="0"
     inkscape:pageshadow="2"
     inkscape:window-width="2560"
     inkscape:window-height="1016"
     id="namedview938"
     showgrid="false"
     fit-margin-top="0"
     fit-margin-left="0"
     fit-margin-right="0"
     fit-margin-bottom="0"
     inkscape:zoom="1.5507812"
     inkscape:cx="479.50123"
     inkscape:cy="255.15869"
     inkscape:window-x="0"
     inkscape:window-y="0"
     inkscape:window-maximized="1"
     inkscape:current-layer="svg936" />
  <rect
     style="fill:#e3e2db;stroke-width:1.23261"
     id="rect1062"
     width="511.20151"
     height="510.96725"
     x="0"
     y="0"
     sodipodi:insensitive="true" />
  <g
     id="g1060"
     transform="translate(-517.57434,3.9017625)">
    <g
       id="petal"
       transform="translate(521.46348,-4.5566751)">
      <circle
         cx="256"
         cy="256"
         r="2"
         id="circle833" />
      <circle
         cx="294.73999"
         cy="23.927"
         r="2"
         id="circle835" />
      <circle
         cx="313.10999"
         cy="18.841999"
         r="2"
         id="circle837" />
      <circle
         cx="332.19"
         cy="18.681999"
         r="2"
         id="circle839" />
      <circle
         cx="350.66"
         cy="23.461"
         r="2"
         id="circle841" />
      <circle
         cx="367.25"
         cy="32.828999"
         r="2"
         id="circle843" />
      <circle
         cx="278.31"
         cy="33.625999"
         r="2"
         id="circle845" />
      <circle
         cx="390.53"
         cy="62.653999"
         r="2"
         id="circle847" />
      <circle
         cx="264.92001"
         cy="47.226002"
         r="2"
         id="circle849" />
      <circle
         cx="380.85001"
         cy="46.213001"
         r="2"
         id="circle851" />
      <circle
         cx="395.81"
         cy="100.09"
         r="2"
         id="circle853" />
      <circle
         cx="395.62"
         cy="81.014999"
         r="2"
         id="circle855" />
      <circle
         cx="338.57001"
         cy="173.41"
         r="2"
         id="circle857" />
      <circle
         cx="324.81"
         cy="187.17999"
         r="2"
         id="circle859" />
      <circle
         cx="311.06"
         cy="200.94"
         r="2"
         id="circle861" />
      <circle
         cx="269.76999"
         cy="242.24001"
         r="2"
         id="circle863" />
      <circle
         cx="283.53"
         cy="228.48"
         r="2"
         id="circle865" />
      <circle
         cx="297.29999"
         cy="214.7"
         r="2"
         id="circle867" />
      <circle
         cx="391.78"
         cy="120.24"
         r="2"
         id="circle869" />
      <circle
         cx="352.35001"
         cy="159.67"
         r="2"
         id="circle871" />
      <circle
         cx="378.39001"
         cy="133.63"
         r="2"
         id="circle873" />
      <circle
         cx="365.85001"
         cy="146.16"
         r="2"
         id="circle875" />
      <g
         fill="none"
         stroke="#000000"
         stroke-width="1px"
         id="g919">
        <path
           d="M 256.01,63.992 391.78,120.24"
           id="path877" />
        <path
           d="m 256.01,82.929 139.8,17.161"
           id="path879" />
        <path
           d="M 256.01,100.66 395.62,81.019"
           id="path881" />
        <path
           d="M 256.01,119.75 390.53,62.649"
           id="path883" />
        <path
           d="M 255.99,139.21 380.85,46.209"
           id="path885" />
        <path
           d="M 255.99,158.68 367.25,32.83"
           id="path887" />
        <path
           d="M 256,178.13 350.66,23.46"
           id="path889" />
        <path
           d="M 256,197.59 332.19,18.68"
           id="path891" />
        <path
           d="M 256.01,217.07 313.113,18.84"
           id="path893" />
        <path
           d="M 256.01,236.53 294.743,23.92"
           id="path895" />
        <path
           d="M 256,256 278.31,33.63"
           id="path897" />
        <path
           d="M 378.39,133.63 264.92,47.226"
           id="path899" />
        <path
           d="M 365.85,146.16 278.31,33.63"
           id="path901" />
        <path
           d="M 352.35,159.67 294.74,23.93"
           id="path903" />
        <path
           d="M 338.57,173.41 313.11,18.84"
           id="path905" />
        <path
           d="m 324.81,187.18 7.38,-168.5"
           id="path907" />
        <path
           d="M 311.06,200.94 350.66,23.46"
           id="path909" />
        <path
           d="M 297.3,214.7 367.25,32.83"
           id="path911" />
        <path
           d="M 283.53,228.48 380.85,46.21"
           id="path913" />
        <path
           d="M 269.77,242.24 390.53,62.65"
           id="path915" />
        <path
           d="M 256,256 395.62,81.01"
           id="path917" />
      </g>
    </g>
    <use
       xlink:href="#petal"
       transform="rotate(45,777.46347,251.44332)"
       id="use922"
       x="0"
       y="0"
       width="100%"
       height="100%" />
    <use
       xlink:href="#petal"
       transform="rotate(90,777.46348,251.44332)"
       id="use924"
       x="0"
       y="0"
       width="100%"
       height="100%" />
    <use
       xlink:href="#petal"
       transform="rotate(135,777.46348,251.44332)"
       id="use926"
       x="0"
       y="0"
       width="100%"
       height="100%" />
    <use
       xlink:href="#petal"
       transform="rotate(180,777.46348,251.44332)"
       id="use928"
       x="0"
       y="0"
       width="100%"
       height="100%" />
    <use
       xlink:href="#petal"
       transform="rotate(-135,777.46348,251.44332)"
       id="use930"
       x="0"
       y="0"
       width="100%"
       height="100%" />
    <use
       xlink:href="#petal"
       transform="rotate(-90,777.46348,251.44332)"
       id="use932"
       x="0"
       y="0"
       width="100%"
       height="100%" />
    <use
       xlink:href="#petal"
       transform="rotate(-45,777.46347,251.44332)"
       id="use934"
       x="0"
       y="0"
       width="100%"
       height="100%" />
    <rect
       style="fill:none"
       id="rect1005"
       width="236.62468"
       height="13.571789"
       x="689.9068"
       y="194.46095" />
  </g>
  <g
     inkscape:groupmode="layer"
     id="layer2"
     inkscape:label="background"
     style="display:none"
     transform="translate(-1.5466307,-0.84131074)"
     sodipodi:insensitive="true" />
  <g
     inkscape:groupmode="layer"
     id="layer3"
     inkscape:label="front"
     sodipodi:insensitive="true"
     transform="translate(-1.5466307,-0.84131074)" />
</svg>
